<?xml version="1.0" encoding="UTF-8" standalone="no"?>
<!-- Created with Inkscape (http://www.inkscape.org/) -->

<svg
   version="1.1"
   id="svg2"
   width="1024"
   height="1024"
   viewBox="0 0 1024 1024"
   sodipodi:docname="favicon.svg"
   inkscape:version="1.2.2 (b0a8486541, 2022-12-01)"
   xmlns:inkscape="http://www.inkscape.org/namespaces/inkscape"
   xmlns:sodipodi="http://sodipodi.sourceforge.net/DTD/sodipodi-0.dtd"
   xmlns="http://www.w3.org/2000/svg"
   xmlns:svg="http://www.w3.org/2000/svg">
  <defs
     id="defs6" />
  <sodipodi:namedview
     id="namedview4"
     pagecolor="#ffffff"
     bordercolor="#000000"
     borderopacity="0.25"
     inkscape:showpageshadow="2"
     inkscape:pageopacity="0.0"
     inkscape:pagecheckerboard="true"
     inkscape:deskcolor="#d1d1d1"
     showgrid="false"
     inkscape:zoom="0.72713228"
     inkscape:cx="421.5189"
     inkscape:cy="865.72969"
     inkscape:window-width="2494"
     inkscape:window-height="1369"
     inkscape:window-x="66"
     inkscape:window-y="32"
     inkscape:window-maximized="1"
     inkscape:current-layer="g8" />
  <g
     inkscape:groupmode="layer"
     inkscape:label="Image"
     id="g8">
    <g
       id="g3037"
       transform="translate(7.4916584,2.5783671)">
      <path
         style="fill:#fcbdaf;fill-opacity:1;stroke-width:1"
         d="m 503.89555,917.94645 c -14.85154,-0.34625 -50.31583,-12.77958 -60.53161,-26.27431 -15.15928,-7.73547 -33.65615,-55.28114 -21.03248,-69.53617 0.95473,0 19.29979,-13.53853 29.36459,-15.64691 12.29689,-76.27137 17.61709,-92.09568 24.5557,-117.6505 17.90645,-10.37166 45.49727,-10.81528 52.85831,-1.45347 12.68172,43.8811 24.17379,80.78405 28.90434,115.86142 9.85614,3.44339 21.12537,7.76633 30.44575,19.38976 5.30017,14.50771 11.27445,39.04624 -1.94159,51.27271 -14.29945,13.22874 -63.70805,44.47847 -82.62301,44.03747 z"
         id="path341"
         sodipodi:nodetypes="scccccccss" />
      <path
         d="m 215.24079,550.97193 c 1.98097,-18.03558 6.09847,-32.02604 11.10301,-51.0484 71.56694,-25.52234 204.21995,-37.90131 281.41795,-41.25201 89.81504,-2.33586 208.27911,14.34868 280.10616,41.56503 -6.85244,16.9276 -1.09783,43.5031 0.41327,51.77604 -113.50911,-55.6332 -441.69436,-57.0483 -573.04039,-1.04066 z"
         style="fill:#eea8a5;fill-opacity:1;stroke-width:1"
         id="path2514" />
      <path
         style="fill:#c63041;fill-opacity:1;stroke-width:1"
         d="M 31.583678,508.16455 C 64.466976,469.87722 117.23631,447.64291 174.89391,424.84648 277.24326,384.38 444.88262,360.20487 558.6375,365.72891 c 54.9465,4.39038 234.70494,18.31364 243.06231,85.84424 -0.38251,0.38251 -52.87987,5.50577 -64.81123,3.88525 -102.40507,-14.96869 -185.65346,-7.8799 -278.20648,-4.07938 -95.86091,3.89786 -186.32739,9.52671 -256.26895,20.97926 -32.77013,5.36594 -109.458648,19.86894 -115.806539,21.8072 -2.333399,0.71247 -21.083967,5.70899 -55.022933,13.99907 z M 294.6277,299.04031 C 314.45639,240.64184 334.18348,173.02582 376.32212,130.56674 426.42914,89.846672 537.10118,29.782544 614.56336,11.893942 c 52.67831,10.332912 177.01175,96.019118 213.90623,141.745278 7.09892,13.5499 20.24554,63.79099 17.68072,85.53722 -1.90106,16.11847 -7.4909,46.52476 -18.01122,45.77249 -11.59995,-0.82948 -46.14706,-59.84319 -49.60058,-67.1053 -18.07827,-9.89518 -34.0316,-20.55836 -77.35291,-30.41075 -3.34222,-0.83886 -6.4488,4.50867 -12.83671,16.06214 8.55527,31.47164 15.22646,52.9909 28.04355,95.41691 -153.1706,-23.61069 -273.72694,-21.16517 -421.76474,0.12831 z"
         id="path335"
         sodipodi:nodetypes="csccccsscccccsscccccc" />
      <path
         style="fill:#e39e9b;fill-opacity:1;stroke-width:1"
         d="m 486.81246,909.10395 c -18.55105,-6.55935 -46.76159,-25.20522 -54.12077,-28.35024 -5.0319,-3.51751 -14.60471,-19.10657 -15.54595,-25.27517 l 2.69023,-16.61127 c 4.59916,9.5599 17.54462,25.71147 27.00401,19.07867 1.71085,-1.19961 3.61037,-0.93534 9.77187,7.20381 12.73445,16.82182 27.73503,24.96718 46.48739,25.24279 13.52511,0.19879 20.52194,-1.65871 28.80715,-10.27329 11.86543,-12.3371 18.29845,-33.0573 19.68226,-44.9775 1.79382,-4.51187 8.65506,-21.79382 9.99974,-24.89194 4.87568,1.65135 10.80782,4.42354 13.969,7.21104 6.72975,6.30887 12.83024,13.22125 18.88142,31.77999 0.75107,9.05022 -4.83859,16.21058 -11.52838,25.00154 -3.52752,2.41682 -5.97116,3.94126 -13.7253,10.25585 -9.18429,4.73621 -19.4612,9.92892 -44.02586,23.42675 -10.73489,5.49726 -26.79296,5.99096 -38.34681,1.17897 z"
         id="path339"
         sodipodi:nodetypes="ccccsssscccccccc" />
      <path
         style="fill:#791630;fill-opacity:1;stroke-width:1"
         d="m 654.99112,584.41138 c 1.36314,-0.35621 3.59372,-0.35621 4.95685,0 1.36313,0.35623 0.24785,0.64769 -2.47842,0.64769 -2.72627,0 -3.84155,-0.29146 -2.47843,-0.64769 z M 974.23709,507.84241 C 948.1075,511.21483 866.07654,483.12136 823.0139,475.56981 729.52743,459.17586 645.86763,449.31452 529.3192,447.53578 c -42.53931,-0.64921 -73.15017,13.30963 -72.94585,-1.1873 89.30845,-17.71381 195.41368,-17.44796 278.7311,-6.66693 11.93135,1.62053 19.81015,2.25143 22.38885,2.25093 -5.35334,-4.52004 -29.519,-18.8037 -52.79295,-30.49767 -31.39105,-13.88691 -63.6732,-27.19651 -96.19693,-37.05561 13.15629,1.97886 29.81526,3.06207 42.62061,5.02327 90.76469,13.8659 158.59085,33.71855 190.58314,46.32311 26.11212,10.28785 125.57131,70.78071 132.52992,82.11683 z M 543.81618,464.06917 c 0.97367,-0.39288 2.56693,-0.39288 3.5406,0 0.97367,0.39288 0.17703,0.71434 -1.7703,0.71434 -1.94734,0 -2.74397,-0.32146 -1.7703,-0.71434 z M 242.99366,393.15482 c 4.31656,-22.92362 16.46271,-57.71914 28.3602,-78.77465 43.35129,-14.80031 208.1406,-36.7984 259.86685,-36.84165 16.73611,-0.0142 118.27193,17.01451 141.84773,22.85789 41.3833,10.25702 58.27813,19.39592 66.83842,23.08134 10.07518,16.30501 13.96881,40.72832 18.70871,64.4812 -186.01688,-25.85828 -352.85415,-25.36943 -515.62191,5.19587 z M 691.45935,287.85621 c -14.85301,-4.09355 -54.82942,-9.72687 -72.22832,-12.46332 -5.06307,-0.79629 -11.63039,-1.83127 -14.59405,-2.29993 -19.91561,-3.14941 -48.1361,-2.39305 -82.41849,-3.23089 -35.24206,-0.8613 -37.49362,-1.25472 -50.98468,-1.86726 40.794,-8.07787 90.24526,-11.59745 123.04228,-11.68392 l 39.48405,-0.0701 -0.85567,-9.97832 c -1.82175,-21.2444 -16.53774,-63.62649 -28.08948,-80.89777 -7.14757,-10.68651 -23.70112,-27.32536 -30.87712,-31.0362 -2.35141,-1.21595 -4.27529,-2.60581 -4.27529,-3.08853 0,-1.41938 26.54913,0.57469 40.16077,3.01641 6.89922,1.23762 18.65575,4.53934 26.1256,7.33713 l 13.58156,5.08687 2.39521,-2.95796 c 6.40503,-7.90989 5.99899,-27.53838 -1.0702,-51.733692 -0.67253,-2.301845 -0.24407,-2.536643 3.09815,-1.697789 10.52568,2.641771 27.83481,17.001381 40.44715,33.554831 10.08487,13.2362 15.15591,17.6206 26.09147,22.55865 14.32266,6.46753 41.52917,15.47293 49.6178,16.42359 7.33436,0.86201 7.72638,0.73986 9.08374,-2.8303 1.64286,-4.32105 5.41093,-5.46136 7.45749,-1.25279 1.95281,4.01574 1.81001,6.00216 2.25166,11.28163 0.36785,4.39719 -0.73307,5.09665 6.58256,12.83426 13.98525,14.79191 20.87218,24.78482 29.31103,42.53019 4.61189,9.69794 8.91741,17.04372 9.70454,16.55724 2.16713,-1.33935 1.65478,7.10157 -1.22569,20.1927 -2.51558,11.43288 -4.25778,15.38235 -5.39395,12.22788 -1.82462,-5.06589 -26.98123,-47.65283 -31.99775,-54.16813 -7.13052,-9.2609 -21.69344,-21.60871 -30.20231,-25.60836 -7.54138,-3.54487 -39.34301,-11.85965 -57.53077,-15.04187 -2.89326,-0.50623 -5.81767,-1.65036 -6.49869,-2.54255 -0.68104,-0.89218 -2.72109,-7.03927 -4.53342,-13.6602 -6.47075,-23.6393 -16.43569,-42.18037 -31.58822,-58.77402 -8.5,-9.308402 -11.70192,-10.025303 -5.72904,-1.28269 9.3175,13.63815 17.04959,42.06757 18.63082,68.50189 0.56084,9.37594 0.77469,17.04716 0.47523,17.04716 -0.29946,0 -6.45332,-5.64889 -13.67523,-12.55308 -14.71834,-14.07083 -28.86378,-23.49858 -46.27492,-30.84167 -12.99383,-5.4801 -31.47083,-10.93474 -34.08663,-10.0628 -0.92469,0.30822 2.7636,3.1693 8.19622,6.35794 42.77102,25.10423 72.46192,57.89744 96.49886,106.58175 8.79756,17.81856 18.88861,40.23321 18.88861,41.95614 0,2.39076 0.96942,2.52891 -16.99488,-2.42211 z"
         id="path333"
         sodipodi:nodetypes="sssscssccccccscssssccsscccsssscccsssssscssssssssssssssssssssssssssssss" />
      <ellipse
         style="fill:#eef1f8;fill-opacity:1;stroke-width:0.944883;stroke-linecap:square;-inkscape-stroke:none;stop-color:#000000"
         id="path2463-3"
         cx="657.38892"
         cy="698.73529"
         rx="120.08534"
         ry="118.70178" />
      <ellipse
         style="fill:#eef1f8;fill-opacity:1;stroke-width:0.944883;stroke-linecap:square;-inkscape-stroke:none;stop-color:#000000"
         id="path2463"
         cx="351.42081"
         cy="698.68921"
         rx="120.08534"
         ry="118.70178" />
      <path
         style="fill:#1c1518;stroke-width:1;fill-opacity:1"
         d="m 331.73403,1016.4124 c -14.45635,-2.2177 -14.1268,-1.7926 -4.12359,-5.3178 11.27906,-3.9747 22.16422,-9.4791 26.79696,-13.55053 2.96695,-2.60748 3.07726,-2.95159 0.69461,-2.16686 -14.55418,4.79359 -20.88507,5.67399 -40.36287,5.61309 -18.45366,-0.058 -21.70286,-0.4534 -32.05028,-3.90289 -13.58836,-4.52982 -29.81531,-14.76359 -38.86081,-24.50813 -24.81273,-26.73028 -26.25704,-63.87895 -3.42962,-88.21181 3.36722,-3.58929 8.05661,-7.65882 10.42087,-9.04341 l 4.29863,-2.51742 -4.84106,7.19381 c -5.66429,8.41708 -7.74722,15.01784 -7.75815,24.58531 -0.0128,11.20298 2.72583,17.86015 10.61126,25.79436 8.99333,9.04896 17.7963,12.26581 33.37942,12.19776 19.86556,-0.0868 37.26051,-7.30605 59.21999,-24.57766 18.45554,-14.51565 25.17619,-19.19902 34.15685,-23.80263 9.78835,-5.01763 25.71187,-9.98302 32.01461,-9.98302 2.64421,0 4.80766,-0.35689 4.80766,-0.79308 0,-0.4362 -2.19681,-3.67015 -4.88179,-7.18657 -6.80379,-8.91065 -8.30489,-14.471 -7.58898,-28.11089 0.46993,-8.95329 1.50497,-13.4853 4.45858,-19.52228 6.21621,-12.70546 18.49777,-23.72495 31.02612,-27.83783 4.64149,-1.52373 5.31516,-2.30982 5.34469,-6.23645 0.0185,-2.47113 0.62067,-7.0243 1.33798,-10.11816 0.7173,-3.09386 1.03568,-5.89371 0.70752,-6.22187 -0.32818,-0.32818 -4.997,3.55436 -10.37517,8.62785 -5.37817,5.0735 -12.77102,11.28347 -16.42858,13.79993 -10.33151,7.10826 -28.54221,15.02406 -42.54701,18.49428 -11.10972,2.75286 -15.10992,3.054 -31.1573,2.34553 -20.93955,-0.92444 -30.41285,-3.12588 -47.22248,-10.9737 -35.52197,-16.58393 -60.82771,-47.77884 -69.14027,-85.23065 -1.25456,-5.65231 -2.44218,-10.47223 -2.63916,-10.71087 -0.19699,-0.23867 -5.76909,-1.70948 -12.38246,-3.26846 -17.29851,-4.07785 -18.5544,-5.72476 -19.2212,-25.20594 -0.56728,-16.57412 1.07272,-22.52128 7.10007,-25.74703 2.38462,-1.2762 25.69209,-5.37098 31.348,-5.50739 0.628,-0.0151 2.46803,-3.05474 4.08899,-6.75467 7.87084,-17.96586 26.01291,-39.34539 42.89769,-50.55289 10.72871,-7.1213 26.70587,-14.53599 35.62142,-16.53121 12.47122,-2.79094 9.05438,-4.48386 -6.91882,-3.42803 -27.64233,1.82715 -51.92002,9.41695 -70.51532,22.04478 l -8.87428,6.0264 0.93531,-4.80296 c 2.1021,-10.79481 9.66025,-23.03465 21.46507,-34.761 l 11.62414,-11.5469 -4.22604,-0.84521 c -2.32434,-0.46487 -9.08553,-0.84839 -15.0249,-0.85225 l -10.79883,-0.007 4.24871,-3.52601 c 7.31881,-6.07386 25.64734,-14.55479 36.83333,-17.04345 6.61365,-1.47139 14.52039,-2.17507 20.58773,-1.83222 5.41773,0.30612 9.85041,0.0883 9.85041,-0.48385 0,-1.59204 -11.84227,-9.38549 -20.01504,-13.17199 l -7.29453,-3.3796 5.32964,-0.99985 c 2.93129,-0.54991 12.42182,-0.67934 21.09005,-0.2876 12.59334,0.5691 18.38511,1.59531 28.82171,5.10673 14.44875,4.86131 28.40094,11.45101 35.44497,16.74086 2.53154,1.90109 4.60279,3.0596 4.60279,2.57447 0,-2.3376 -7.87577,-13.88584 -12.88887,-18.89893 l -5.62925,-5.62925 8.35104,1.94817 c 27.66856,6.45462 54.99177,21.97422 71.68983,40.71982 4.25869,4.7809 8.21529,8.22033 8.79243,7.64317 0.57715,-0.57714 0.34048,-5.97002 -0.52594,-11.98417 -0.86644,-6.01414 -1.26036,-11.24977 -0.8754,-11.63474 0.8751,-0.87509 7.61428,7.12063 13.21845,15.68308 10.03028,15.32499 12.9082,35.8644 6.73686,48.08041 -3.66502,7.25487 -10.94414,12.70369 -16.97089,12.70369 h -4.15992 l 4.91159,6.72715 c 10.33455,14.15469 14.30107,20.85314 18.13143,30.61928 2.29328,5.8471 4.73641,9.99352 5.80389,9.85027 1.01394,-0.1361 6.30469,-1.87522 11.75722,-3.8648 17.02931,-6.21381 33.07272,-5.01145 54.96384,4.11921 1.9663,0.82015 2.76717,0.28439 3.44041,-2.30151 1.82063,-6.99301 13.62627,-28.67102 19.62433,-36.03502 3.43078,-4.21208 6.23777,-7.90453 6.23777,-8.20543 0,-0.30093 -2.49991,-0.94689 -5.55535,-1.43547 -18.2122,-2.91225 -24.20784,-27.73666 -12.58178,-52.09364 4.80289,-10.06218 15.59438,-25.27332 17.93007,-25.27332 0.62882,0 0.30863,3.98319 -0.71154,8.85151 -2.08187,9.93491 -2.45816,18.05708 -0.83658,18.05708 0.59251,0 3.91998,-3.56247 7.39439,-7.91659 8.20024,-10.27655 20.88785,-20.28736 35.64597,-28.12545 12.15531,-6.45574 35.34003,-14.94265 40.82062,-14.94265 2.89434,0 2.81455,0.27202 -1.28111,4.36767 -4.82828,4.82828 -12.17847,16.59842 -11.06233,17.71455 0.39086,0.39085 3.66922,-1.28608 7.28526,-3.72651 8.01236,-5.40747 25.70625,-13.19811 37.06456,-16.31955 9.62163,-2.64419 34.61647,-4.29463 42.53672,-2.80879 l 5.35261,1.00416 -8.44841,4.51391 c -4.64662,2.48264 -10.66546,6.09509 -13.37521,8.02763 l -4.92683,3.5137 15.57866,0.93332 c 18.79444,1.12597 32.00687,5.41278 46.73596,15.16359 l 9.91369,6.56296 -14.4827,0.79237 c -7.9655,0.43581 -14.82811,1.13779 -15.25025,1.55992 -0.42216,0.42214 1.87496,2.59879 5.10468,4.83698 10.98873,7.61521 24.03477,26.60856 27.89315,40.60887 0.80501,2.92101 1.26042,5.31092 1.01201,5.31092 -0.24842,0 -3.86156,-2.29786 -8.02924,-5.10636 -21.14577,-14.24958 -51.22406,-23.19681 -78.03559,-23.21278 -10.64393,-0.006 -12.7553,1.95376 -3.66952,3.40664 9.02297,1.44283 25.94946,9.00163 37.58613,16.78471 18.56522,12.41718 36.59882,33.17778 44.89988,51.68956 1.48144,3.30367 3.39336,6.01907 4.24871,6.0342 0.85538,0.0151 7.86405,0.92132 15.57481,2.01373 11.70751,1.65862 14.62704,2.59318 17.70302,5.66679 3.4002,3.39759 3.72153,4.78864 4.17885,18.09011 0.59108,17.19262 -1.14746,24.36915 -6.56883,27.11532 -2.11216,1.06991 -8.63115,2.99603 -14.48668,4.28028 l -10.64638,2.33497 -3.10522,13.07694 c -11.17351,47.05457 -49.53557,83.62858 -97.1891,92.65914 -17.13615,3.24738 -41.85496,1.93049 -57.56744,-3.0669 -20.47694,-6.51273 -40.48915,-18.70682 -54.45866,-33.18338 -3.07907,-3.19084 -5.98004,-5.80153 -6.44661,-5.80153 -0.72697,0 0.92665,14.62612 2.18038,19.28525 0.23418,0.87024 4.58934,3.53063 9.67815,5.91196 16.59704,7.7667 27.28201,21.8683 30.73883,40.56795 2.44044,13.20163 -3.52298,31.97082 -11.51725,36.24923 -3.79509,2.03107 -2.16716,4.20372 3.14979,4.20372 15.38549,0 36.39001,10.07632 59.47785,28.53277 10.58406,8.46091 22.49992,16.50437 30.22026,20.39929 28.79213,14.52564 56.12827,12.82956 71.3162,-4.42483 3.02109,-3.43214 6.30107,-9.12683 7.28887,-12.65488 3.5969,-12.84689 -0.35187,-30.46292 -9.01499,-40.21712 l -3.02672,-3.40791 4.74791,2.6998 c 8.00272,4.55055 19.50072,18.12037 22.94636,27.08098 4.34989,11.31221 5.25818,28.49434 2.08696,39.47905 -5.94982,20.60957 -21.56144,38.93892 -41.82093,49.10128 -17.06903,8.56198 -31.28468,11.46711 -51.64733,10.55451 -10.54991,-0.4728 -20.67931,-1.81703 -26.59837,-3.52963 -5.25779,-1.5214 -9.55963,-2.44399 -9.55963,-2.05026 0,2.49586 15.49101,10.82189 28.32483,15.22369 l 9.20557,3.1575 -5.66496,1.2372 c -3.11574,0.6804 -14.90595,1.1615 -26.20047,1.0691 -17.19498,-0.1408 -22.788,-0.7627 -34.38258,-3.823 -17.11901,-4.5184 -38.71382,-14.59473 -49.60929,-23.14821 -4.52262,-3.55047 -8.49992,-6.17841 -8.83846,-5.83988 -0.92206,0.92205 8.91737,16.82859 13.17274,21.29519 4.8605,5.1017 2.66698,4.9526 -12.59883,-0.8567 -24.84582,-9.45491 -46.74077,-26.2126 -56.49336,-43.23826 -2.70183,-4.71673 -5.23215,-8.59481 -5.62296,-8.61798 -0.3908,-0.0232 -2.29334,2.98509 -4.22786,6.68503 -4.80776,9.19529 -24.22914,28.23297 -35.42469,34.72483 -12.54577,6.31135 -25.23193,12.24038 -38.78059,15.64088 l 5.78292,-6.9487 c 5.24713,-6.30501 11.75427,-17.32349 11.75427,-19.90352 0,-0.56622 -1.75261,0.55985 -3.89466,2.5024 -16.40522,14.87719 -45.36907,27.37812 -71.62267,30.91262 -10.60693,1.428 -28.8814,1.7107 -36.36574,0.5626 z M 525.06612,905.55641 c 11.13739,-5.48292 21.00943,-16.10748 28.93389,-31.1395 l 5.66071,-10.73784 0.044,7.43527 c 0.0242,4.08939 0.34456,7.43527 0.71182,7.43527 0.36725,0 4.35043,-1.62638 8.85151,-3.61418 19.51573,-8.61868 24.79594,-22.8971 15.35626,-41.52538 -3.34191,-6.59498 -13.01729,-16.69302 -19.12749,-19.96311 -3.70334,-1.98195 -3.3771,-2.27479 -5.47287,4.9124 -0.90853,3.11574 -3.17818,8.1664 -5.04362,11.22369 l -3.39172,5.55872 -0.94023,-10.51556 c -2.6361,-29.48282 -4.50385,-40.40261 -12.82044,-74.95455 -4.96844,-20.64172 -10.08844,-42.42168 -11.37782,-48.39991 -2.28549,-10.59674 -2.48421,-10.92549 -7.91944,-13.10023 -7.54336,-3.01826 -21.89024,-2.89101 -28.17767,0.2499 -4.12525,2.0608 -5.25512,3.66421 -6.73487,9.55743 -17.81007,70.93055 -24.42244,105.48298 -24.42244,127.61784 0,6.86022 -0.51205,10.3164 -1.44317,9.74093 -2.07357,-1.28154 -8.46651,-14.29389 -8.49219,-17.28524 -0.0116,-1.38902 -0.58442,-3.41417 -1.27219,-4.50035 -1.69702,-2.68002 -9.03248,1.86538 -17.05354,10.56719 -7.49188,8.12772 -10.26098,14.72243 -10.35136,24.65202 -0.11784,12.94147 5.62024,20.39218 20.67436,26.84513 3.76365,1.61329 7.1088,2.93326 7.43371,2.93326 0.32488,0 0.59095,-3.66453 0.59127,-8.1434 l 5.9e-4,-8.14338 5.65821,11.3472 c 16.38204,32.85319 43.33802,45.13341 70.12469,31.94638 z M 367.50459,794.39339 c 34.1465,-6.53331 61.71139,-29.67212 73.88879,-62.02454 12.79028,-33.98061 3.50993,-73.8558 -23.33059,-100.24525 -11.32517,-11.13485 -23.73112,-18.6579 -38.88468,-23.57992 -14.37295,-4.66848 -37.26179,-5.30614 -51.6928,-1.44013 -34.18085,9.1569 -61.03667,36.12667 -70.22257,70.52047 -6.5211,24.41629 -0.55744,56.45086 14.20353,76.29635 11.29985,15.19212 31.96955,31.41899 45.92628,36.05467 19.20799,6.37988 33.3453,7.62636 50.11204,4.41835 z m -28.45658,-15.68555 c 0.38768,-0.38767 5.52451,-1.9375 11.41519,-3.44409 37.00017,-9.46304 67.38824,-40.15915 75.69779,-76.4651 l 2.45664,-10.73351 1.01662,7.78933 c 3.64633,27.93798 -9.98543,56.34733 -34.77533,72.47375 -12.4552,8.1024 -23.63577,11.08449 -41.55837,11.08449 -8.22656,0 -14.64021,-0.31718 -14.25254,-0.70487 z m -66.68346,-80.0209 c -0.0925,-17.41046 1.78662,-25.56397 9.09887,-39.47922 8.9203,-16.97536 25.93273,-30.70058 44.40102,-35.82167 9.19762,-2.55043 32.6573,-3.65742 34.67835,-1.63636 0.5258,0.52581 -3.59844,2.11263 -9.16501,3.52628 -20.07712,5.09863 -35.91857,14.60526 -51.02879,30.6229 -10.8299,11.48026 -21.24011,30.6233 -23.79371,43.75353 -2.93527,15.09279 -4.1068,14.82289 -4.19073,-0.96546 z m 409.88923,94.18236 c 34.96957,-9.27903 62.58819,-38.1825 70.6402,-73.92643 4.67781,-20.7654 2.00894,-39.97406 -8.51652,-61.29614 -11.96968,-24.24774 -35.35994,-43.44097 -61.41557,-50.39544 -12.53798,-3.34649 -36.01081,-3.45039 -48.1522,-0.21315 -17.56766,4.68407 -29.25868,11.62781 -43.24034,25.68214 -20.26699,20.37231 -28.98797,40.83602 -28.98797,68.02003 0,15.71221 2.51344,26.22083 9.84029,41.142 9.73199,19.81918 23.92724,33.7853 44.68499,43.96376 7.0104,3.43752 17.20735,7.21081 22.65987,8.3851 11.75673,2.532 30.01859,1.94664 42.48725,-1.36187 z m -34.45396,-14.17263 c 0.39381,-0.39383 5.12231,-1.87286 10.50776,-3.28677 12.92317,-3.39287 30.47593,-12.65576 42.00934,-22.16905 16.09607,-13.2768 28.16088,-33.33553 33.50055,-55.69736 l 2.60144,-10.89459 1.03914,9.42844 c 4.02771,36.54488 -18.84382,70.63237 -54.39914,81.07593 -7.05505,2.07225 -37.10325,3.38756 -35.25909,1.5434 z M 580.6018,710.01688 c -0.54277,-1.94733 -0.99556,-8.68273 -1.0062,-14.96754 -0.0353,-20.838 7.50508,-38.29408 23.25014,-53.82472 13.55241,-13.36785 26.54921,-19.09486 45.64224,-20.11219 7.13361,-0.38011 14.78132,-0.22639 16.9949,0.3416 3.57183,0.91648 2.82961,1.33874 -6.59607,3.75245 -5.84143,1.49588 -16.03837,5.38666 -22.65986,8.64618 -9.73936,4.79433 -14.48245,8.37398 -24.83023,18.73951 -16.54477,16.57318 -25.79529,33.99441 -28.81001,54.25713 -0.85257,5.73026 -1.14192,6.19204 -1.98491,3.16758 z M 207.71526,684.52869 c 1.10636,-11.22791 2.06933,-12.22991 13.14078,-13.67336 12.76145,-1.6638 14.16243,-6.15817 1.9196,-6.15817 -8.78153,0 -15.57246,1.83194 -17.39066,4.69138 -1.4956,2.35214 -1.38637,25.04969 0.12053,25.04969 0.67828,0 1.67265,-4.4593 2.20971,-9.90954 z m -0.40586,-65.85938 c -10.20844,-24.43716 -9.55475,-23.36798 -14.2869,-23.36798 -9.0669,0 -82.17998,-13.22116 -105.390459,-19.05792 C 49.365396,566.62045 22.812853,555.45108 12.870668,544.79495 -5.7034926,524.88696 2.1426546,505.04833 38.158891,480.85494 64.547674,463.12865 112.19987,438.24773 152.2365,421.29091 c 18.35322,-7.7732 65.09603,-25.82741 75.5927,-29.19736 0.88284,-0.28344 3.55511,-5.503 5.93837,-11.59904 2.38326,-6.09602 6.02766,-15.16478 8.09865,-20.15277 2.071,-4.988 5.34552,-15.47095 7.2767,-23.29544 4.49571,-18.21497 7.024,-23.00667 16.33748,-30.96344 6.77629,-5.78917 8.42162,-8.38865 15.18021,-23.9834 19.31362,-44.56426 60.33394,-123.11348 74.746,-143.13008 9.29367,-12.9078 31.69373,-35.04457 42.89077,-42.386652 28.9792,-19.002165 133.4948,-72.265629 164.66283,-83.915814 63.48533,-23.72999 103.34305,-11.3007152 196.47872,61.270114 53.44086,41.640852 69.63159,57.439842 80.00488,78.069112 17.94794,35.69296 22.93219,93.39328 11.11937,128.72361 -4.79511,14.34142 -16.64564,20.5061 -29.2753,15.22909 -5.79204,-2.42006 -11.2331,-8.82026 -16.69215,-19.63459 -15.23305,-30.17649 -31.86722,-52.56587 -44.59859,-60.0292 -8.32944,-4.88284 -24.22139,-10.00489 -41.21904,-13.2851 -20.86105,-4.02577 -19.20466,-4.81491 -18.56356,8.84402 0.52055,11.09062 1.05376,12.72691 10.49908,32.21949 5.47286,11.29452 13.41715,28.45049 17.65399,38.12438 6.96962,15.91363 8.34704,18.05295 14.46184,22.46118 8.59861,6.19886 12.863,13.68886 15.90154,27.92953 2.8649,13.42693 6.62983,24.53165 15.04133,44.36467 l 6.20211,14.62362 26.20046,9.55385 c 62.3492,22.73531 134.38556,57.76311 168.01861,81.69932 22.15915,15.77037 31.6714,27.85707 31.6714,40.24301 0,23.65652 -28.76441,40.55928 -94.88814,55.75878 -22.67696,5.21263 -72.68246,14.16743 -89.8273,16.08594 l -9.75606,1.09171 -5.85804,14.16241 c -9.0193,21.80506 -8.70188,21.76631 -9.79363,1.1958 -1.28058,-24.12838 -5.59669,-53.34702 -11.47362,-77.67283 -6.44923,-26.69456 -6.55586,-26.92203 -14.50678,-30.94523 -31.28126,-15.8285 -94.42722,-29.05139 -171.0658,-35.82156 -40.2525,-3.55588 -146.59291,-3.56085 -186.94386,-0.008 -70.06045,6.16741 -123.73288,16.42391 -160.48335,30.66748 -18.56396,7.19491 -19.08139,7.70162 -23.32411,22.84058 -7.15043,25.51439 -12.82064,61.09377 -14.86666,93.28512 l -1.03516,16.28677 -4.73299,-11.32993 z M 53.95491,500.40056 c 51.59927,-18.83139 138.20896,-35.90262 233.16752,-45.95853 83.15847,-8.80632 134.83694,-11.39002 225.89049,-11.29354 74.51321,0.0789 94.47282,0.79879 157.2028,5.66967 69.25112,5.37723 141.8472,16.20237 194.94401,26.82848 32.98583,6.60137 69.8947,19.1507 100.13993,27.19438 -9.28089,-7.69263 -44.20408,-28.03961 -72.27191,-41.50358 -87.37478,-41.91319 -167.2828,-68.0374 -244.05565,-79.78875 -10.51559,-1.60958 -24.53638,-3.89328 -31.15731,-5.0749 -6.62093,-1.1816 -22.55364,-3.20438 -35.40604,-4.49507 -29.71363,-2.98394 -119.21986,-3.44731 -146.58098,-0.75885 -80.59835,7.91951 -136.65696,19.46776 -203.93876,42.01202 -64.08947,21.47462 -136.819267,55.21456 -181.643263,84.26579 -6.03105,3.90884 -10.290906,7.11986 -9.466329,7.13559 0.824565,0.0157 6.753547,-1.88899 13.175492,-4.23271 z M 365.72382,358.14297 c 74.48763,-11.84394 163.76442,-13.95444 237.22043,-5.6079 41.2365,4.68555 97.59072,15.40483 130.45217,24.81364 18.56737,5.31616 19.23484,5.30753 17.30658,-0.22389 -2.33224,-6.69025 -6.01732,-8.37362 -42.95688,-19.62302 -33.88744,-10.31989 -87.77033,-21.46469 -118.10275,-24.42762 -1.25278,-0.12236 0.90878,-0.67072 4.80344,-1.21853 7.58718,-1.0672 62.33018,-0.4143 69.39582,0.82767 4.03683,0.70957 4.11166,0.63757 1.50061,-1.44356 -6.57557,-5.241 -41.64841,-16.89661 -68.77208,-22.85471 -15.82618,-3.47644 -11.35346,-4.17408 8.00932,-1.24928 8.44728,1.276 19.3874,2.90823 24.31138,3.6272 24.98181,3.6477 54.39587,11.46052 93.10423,24.72996 7.83749,2.68671 14.75948,4.88495 15.38221,4.88495 1.34139,0 -0.25827,-9.46281 -2.21898,-13.12643 -3.87354,-7.23779 -60.10256,-23.28749 -113.0958,-32.28143 -71.08381,-12.06425 -154.53031,-12.82472 -223.17522,-2.03385 -48.24084,7.5834 -107.98147,22.62984 -120.54287,30.36028 -4.78411,2.9442 -7.6895,9.99304 -9.73145,23.60973 -0.92506,6.16868 -0.79923,6.58712 1.67287,5.56366 1.47024,-0.60868 6.39232,-2.07729 10.93798,-3.2636 8.3307,-2.30164 12.87126,-3.19782 31.55478,-6.59759 10.03545,-1.88879 22.3888,-3.79248 27.45187,-4.23039 l 9.20556,-0.79623 -13.45429,3.52272 c -23.98061,6.27882 -70.35048,21.90805 -72.69963,24.50383 -2.07026,2.28761 -6.60988,13.18955 -6.60988,15.8737 34.45889,-10.11103 70.59693,-17.03449 109.05058,-23.33931 z m -37.5304,-72.32698 c 35.57094,-9.03326 71.39165,-15.17769 112.59119,-19.31312 88.65044,-5.39296 180.66988,-0.27985 265.19121,25.14922 3.94762,1.21765 3.07178,-2.05327 -5.3926,-20.13895 -11.33126,-24.21129 -13.16018,-27.79549 -23.27227,-45.60756 -19.5622,-34.45813 -48.05473,-62.92391 -84.24419,-84.16513 -5.43262,-3.18865 -9.12091,-6.04972 -8.19622,-6.35795 2.6158,-0.87194 21.0928,4.5827 34.08663,10.06281 17.41114,7.34308 31.55658,16.77085 46.27492,30.84167 7.22191,6.90419 13.37577,12.55308 13.67523,12.55308 0.29946,0 0.0857,-7.67122 -0.47523,-17.04715 -1.58123,-26.43434 -9.31332,-54.86375 -18.63082,-68.5019 -5.97288,-8.742614 -2.77096,-8.025713 5.72904,1.28269 15.15253,16.59364 25.11747,35.13471 31.58822,58.77402 1.81233,6.62093 3.85238,12.76803 4.53342,13.6602 0.68102,0.89219 3.60543,2.03633 6.49869,2.54255 18.18776,3.18222 49.98939,11.497 57.53077,15.04188 8.50887,3.99964 23.07179,16.34746 30.20231,25.60835 5.01652,6.51531 30.17313,49.10224 31.99775,54.16812 1.86253,5.17115 6.02349,-10.55292 7.9511,-30.04692 1.64101,-16.5956 0.0471,-32.38982 -5.58559,-55.34832 -6.04289,-24.63051 -10.60843,-33.42446 -25.22436,-48.58616 C 776.60185,110.90538 697.28865,51.612106 665.51595,36.094491 613.95934,10.914484 593.60526,15.674953 465.56884,82.858655 c -47.55251,24.951905 -60.75009,33.315395 -75.61055,47.915495 -14.55328,14.2983 -20.53878,23.0576 -40.23139,58.8754 -18.14509,33.00315 -50.56642,99.4537 -50.56642,103.64059 9.9122,-1.99338 20.69168,-5.35188 29.03294,-7.47415 z"
         id="path331"
         sodipodi:nodetypes="ssssssssscssssssssssssssssssssssssssssssscsscsscssssscsssssscsssssssscssssssssssssssssssssscsscsscsssssscssssssssscssssssssssssssscsssssssscssssssssssccssssssscssssssscsssssssscsssssscsssssssssssssscssssssssssssssssssssssssssscsssssssssssssssssssssssssssssssssssssssssssssssscssssscssssscsssccsssssscssssssssscsssssssssssssssssssccscsscccccssssssscssssssssssssssscc" />
    </g>
  </g>
</svg>
