<?xml version="1.0" encoding="UTF-8" standalone="no"?>
<!-- Created with Inkscape (http://www.inkscape.org/) -->

<svg
   version="1.1"
   id="svg2"
   width="1024"
   height="1024"
   viewBox="0 0 1024 1024"
   sodipodi:docname="Rutherford.svg"
   inkscape:version="1.2.2 (b0a8486541, 2022-12-01)"
   xmlns:inkscape="http://www.inkscape.org/namespaces/inkscape"
   xmlns:sodipodi="http://sodipodi.sourceforge.net/DTD/sodipodi-0.dtd"
   xmlns="http://www.w3.org/2000/svg"
   xmlns:svg="http://www.w3.org/2000/svg">
  <defs
     id="defs6" />
  <sodipodi:namedview
     id="namedview4"
     pagecolor="#ffffff"
     bordercolor="#000000"
     borderopacity="0.25"
     inkscape:showpageshadow="2"
     inkscape:pageopacity="0.0"
     inkscape:pagecheckerboard="true"
     inkscape:deskcolor="#d1d1d1"
     showgrid="false"
     inkscape:zoom="2.9085291"
     inkscape:cx="591.0204"
     inkscape:cy="316.82682"
     inkscape:window-width="2494"
     inkscape:window-height="1369"
     inkscape:window-x="66"
     inkscape:window-y="32"
     inkscape:window-maximized="1"
     inkscape:current-layer="g8" />
  <g
     inkscape:groupmode="layer"
     inkscape:label="Image"
     id="g8">
    <path
       style="fill:#f0d4ac"
       d="m 511.56227,806.81789 c -10.48659,-0.24449 -35.52772,-9.02359 -42.74102,-18.55214 -10.70389,-5.46198 -23.76442,-39.0337 -14.85092,-49.0991 0.67413,0 13.62747,-9.55948 20.73417,-11.04819 8.68277,-53.85478 12.43933,-65.02824 17.33864,-83.07235 12.64365,-7.32337 32.12537,-7.63661 37.32296,-1.02629 8.95448,30.9842 17.06897,57.04116 20.40919,81.80909 6.95936,2.43136 14.9165,5.48376 21.49757,13.691 3.74242,10.24381 7.96082,27.57033 -1.37095,36.20337 -10.09676,9.34074 -44.98389,31.40599 -58.33964,31.09461 z M 308.96543,545.28715 c 1.39875,-12.73482 4.30609,-22.6134 7.83977,-36.04498 50.53301,-18.02118 144.19855,-26.7619 198.70762,-29.12781 63.41789,-1.64934 147.06469,10.13152 197.78136,29.34883 -4.83847,11.95248 -0.77517,30.71729 0.29181,36.55877 -80.14814,-39.28229 -311.87788,-40.28148 -404.62056,-0.73481 z"
       id="path341"
       sodipodi:nodetypes="scccccccsscccccc" />
    <path
       style="fill:#a72528"
       d="m 178.06554,517.47322 c 23.21871,-27.03447 60.47884,-42.73399 101.19054,-58.83042 72.2683,-28.57315 190.6375,-45.64307 270.95917,-41.74258 38.79741,3.10002 165.72383,12.93116 171.62492,60.61413 -0.27009,0.27009 -37.33818,3.88759 -45.76284,2.74335 -72.30764,-10.56931 -131.08886,-5.56395 -196.44002,-2.88042 -67.68684,2.75225 -131.56471,6.72675 -180.95005,14.81333 -23.1388,3.78886 -77.28813,14.02935 -81.77034,15.39794 -1.6476,0.50307 -14.88727,4.03109 -38.85138,9.88467 z M 363.79943,369.81178 c 14.00093,-41.23483 27.93011,-88.97812 57.68397,-118.95823 35.38028,-28.75221 113.52518,-71.16315 168.22078,-83.79419 37.19586,7.29601 124.98699,67.79855 151.03798,100.08553 5.01251,9.56751 14.29526,45.04246 12.48426,60.39735 -1.34233,11.38116 -5.28929,32.85087 -12.71763,32.31969 -8.19065,-0.58569 -32.58417,-42.25493 -35.02269,-47.38267 -12.76496,-6.98693 -24.02951,-14.51614 -54.61845,-21.47286 -2.35992,-0.59231 -4.55345,3.18355 -9.06392,11.34139 6.04083,22.22195 10.75132,37.41658 19.80139,67.37334 -108.15289,-16.67137 -193.27704,-14.9446 -297.80569,0.0906 z"
       id="path335"
       sodipodi:nodetypes="csccccsscccccsscccccc" />
    <path
       style="fill:#f9f0d3"
       d="m 491.19936,768.57428 c -1.6543,-1.88415 -3.3034,-4.77149 -3.66467,-6.41632 C 486.26001,756.35436 490.58252,747 494.53896,747 c 1.0489,0 1.46699,1.19888 1.48213,4.25 0.0116,2.3375 1.07347,7.23124 2.35971,10.87499 2.58085,7.31118 2.10654,9.87501 -1.8269,9.87501 -1.42026,0 -3.53417,-1.35243 -5.35454,-3.42572 z m -0.75507,-37.1739 c -1.52853,-12.23393 0.89836,-37.14464 5.06475,-51.98678 2.23148,-7.94936 5.72295,-18.52606 6.00379,-18.1873 0.1248,0.15053 -0.32292,4.5487 -0.99493,9.7737 -0.67201,5.225 -2.7076,21.875 -4.52353,37 -1.81593,15.125 -3.64376,27.88872 -4.06185,28.36382 -0.41809,0.4751 -1.0878,-1.75844 -1.48823,-4.96344 z M 389.5,718.29892 c -7.7972,-1.62613 -16.5,-5.04452 -16.5,-6.48108 0,-0.51473 -0.39901,-0.68927 -0.88669,-0.38787 -0.48768,0.30141 -1.44278,-0.12204 -2.12245,-0.94098 C 369.3112,709.67005 368.16511,709 367.444,709 c -1.83592,0 -18.55783,-16.00681 -17.87541,-17.11099 0.307,-0.49672 -0.14535,-1.1731 -1.00521,-1.50306 C 347.70352,690.05599 347,689.15917 347,688.39301 347,687.62686 346.52344,687 345.94098,687 c -0.58246,0 -0.81838,-0.38935 -0.52428,-0.86522 0.2941,-0.47587 -0.76685,-2.83837 -2.35768,-5.25 -3.89368,-5.90265 -6.28582,-15.59137 -6.39095,-25.88478 -0.10595,-10.37414 0.5801,-15.23074 3.31058,-23.43584 3.65467,-10.9823 15.21165,-27.54541 20.66719,-29.61961 C 361.94063,601.45227 363,600.58836 363,600.02475 363,599.46114 363.675,599 364.5,599 c 0.825,0 1.5,-0.3873 1.5,-0.86067 0,-2.70069 21.68737,-11.32624 26.25,-10.44021 1.5125,0.29372 2.75,0.1423 2.75,-0.33648 0,-2.46935 28.95606,0.13921 30.57218,2.75415 0.31131,0.50371 0.98492,0.65694 1.49692,0.3405 0.51199,-0.31643 0.9309,-0.0506 0.9309,0.59068 0,0.6413 0.675,0.90699 1.5,0.5904 0.825,-0.31658 1.5,-0.11317 1.5,0.45203 0,0.5652 0.45,0.74952 1,0.4096 0.55,-0.33992 1,-0.11492 1,0.5 0,0.61492 0.45,0.83992 1,0.5 0.55,-0.33992 1,-0.14148 1,0.44098 0,0.58246 0.61029,1.05902 1.3562,1.05902 2.84915,0 19.0354,13.55737 18.06358,15.1298 -0.27356,0.44263 0.42008,1.37775 1.54142,2.07804 1.12134,0.70029 2.0388,1.84001 2.0388,2.53271 0,0.6927 0.45,1.25945 1,1.25945 0.55,0 1,0.675 1,1.5 0,0.825 0.36665,1.5 0.81479,1.5 1.71136,0 8.65347,17.43332 7.6127,19.11733 -0.30004,0.48547 -0.18446,1.44517 0.25684,2.13267 1.58023,2.46183 2.27999,17.62476 1.07298,23.25 -0.35404,1.65 -0.93504,4.5497 -1.2911,6.44379 C 467.63652,674.35738 462.00308,687 460.86611,687 460.38975,687 460,687.675 460,688.5 c 0,0.825 -0.45,1.5 -1,1.5 -0.55,0 -1,0.62686 -1,1.39301 0,0.76616 -0.63662,1.63731 -1.4147,1.93589 -0.77809,0.29858 -2.01559,1.79119 -2.75,3.31692 -2.52454,5.24469 -20.13629,17.50873 -26.94763,18.76513 -1.31322,0.24224 -2.50017,0.53012 -2.63767,0.63974 -0.1375,0.10962 -0.7,0.31181 -1.25,0.44931 -0.55,0.1375 -1.1125,0.34068 -1.25,0.45151 -0.1375,0.11083 -0.925,0.36578 -1.75,0.56654 -0.825,0.20077 -2.625,0.64368 -4,0.98425 -5.3219,1.31816 -19.73468,1.20755 -26.5,-0.20338 z m 217.65472,0.16495 c -3.4899,-0.75742 -6.9774,-1.90175 -7.75,-2.54294 -0.7726,-0.6412 -1.40472,-0.90171 -1.40472,-0.57891 0,1.0301 -8.93075,-3.19829 -13.73191,-6.50158 -2.54953,-1.75412 -5.96272,-4.70093 -7.58488,-6.54846 -1.62215,-1.84753 -3.15687,-3.15165 -3.41048,-2.89804 -0.68526,0.68526 -5.5122,-5.11946 -9.62791,-11.57822 -4.13517,-6.48928 -7.57453,-14.72148 -6.92106,-16.56572 0.2436,-0.6875 -0.0532,-1.25 -0.65948,-1.25 -0.67653,0 -0.86,-0.96575 -0.47492,-2.5 0.3451,-1.375 0.22654,-2.5 -0.26347,-2.5 -0.9179,0 -1.72638,-7.0092 -1.47066,-12.75 0.35095,-7.87866 0.70061,-10.25 1.5114,-10.25 0.47665,0 0.62355,-0.92955 0.32645,-2.06566 C 554.84465,636.68993 562.09264,618 564.19927,618 564.63967,618 565,617.325 565,616.5 c 0,-0.825 0.45,-1.5 1,-1.5 0.55,0 1,-0.61529 1,-1.36732 0,-0.75202 3.49085,-4.68952 7.75745,-8.75 8.02734,-7.63954 19.79272,-14.46287 29.12448,-16.89076 5.2696,-1.37101 25.15879,-1.86666 24.38057,-0.60757 -0.30063,0.48639 0.97982,0.65138 2.84545,0.36665 3.81146,-0.58171 18.89205,3.69015 18.89205,5.35152 0,0.55853 0.45,0.7374 1,0.39748 0.55,-0.33992 1,-0.0665 1,0.60765 0,0.67413 0.27857,0.94711 0.61905,0.60664 0.34047,-0.34048 1.22486,-0.078 1.96529,0.58333 3.34412,2.98674 4.24225,3.54246 4.8091,2.9756 0.33361,-0.3336 0.60656,-0.0815 0.60656,0.56011 0,0.64167 0.63055,1.16667 1.40122,1.16667 0.77067,0 4.51129,3.33024 8.31249,7.40053 6.97736,7.47128 14.84666,20.81049 14.55568,24.67327 -0.0798,1.05941 0.30727,1.9262 0.86015,1.9262 0.55288,0 0.71959,0.9 0.37046,2 -0.34913,1.1 -0.26695,2 0.18261,2 1.85418,0 2.25444,20.2266 0.57331,28.97131 -1.51938,7.90337 -6.84102,19.35312 -11.10107,23.88445 -1.73517,1.84566 -3.15485,3.94721 -3.15485,4.67012 0,2.30753 -11.96721,12.07145 -20.11914,16.41498 -4.33447,2.3095 -7.88086,3.8875 -7.88086,3.50667 0,-0.38083 -0.62267,-0.17565 -1.38371,0.45596 -2.03656,1.6902 -15.8559,4.10859 -22.95426,4.01701 -3.38912,-0.0437 -9.01741,-0.69921 -12.50731,-1.45663 z M 181.89433,516.0073 c 22.71281,-21.54658 109.51025,-67.95082 178.60325,-85.36775 29.29359,-7.31372 83.23304,-9.41966 105.10044,-10.57929 -91.89572,3.19898 -208.19581,67.01963 -241.81359,84.35391 -13.42629,4.39737 -31.0852,10.50115 -41.8901,11.59313 z M 364,368.41729 c 12.02253,-34.60849 38.30965,-99.75944 69.74983,-126.71262 40.92002,-24.81453 113.73493,-61.12254 154.75017,-72.05416 33.50554,9.88298 64.71712,21.25546 84.07615,35.37738 18.31498,13.47434 54.4108,50.9485 55.2583,53.12134 -48.85944,-31.61955 -100.26969,-84.29291 -153.46709,-69.03555 -3.39141,1.0475 -12.79912,4.82146 -20.90602,8.38658 -23.5708,10.36557 -88.35607,45.01946 -100.96134,54.0046 -7.5053,5.34985 -18.88162,17.11383 -24.17145,24.99514 -8.59517,12.80592 -25.45682,45.64337 -37.02599,72.10677 -2.64141,6.04198 -7.13534,15.08948 -7.54206,15.21668 -6.38296,1.74652 -13.15418,3.86033 -19.7605,4.59384 z"
       id="path343"
       sodipodi:nodetypes="ssssssssssssssssssssssssssssssssssssssssssssssssssssssssssssssssssssssssssssssssssssssssssssssssssssssssssssscccccccccccsssscc" />
    <path
       style="fill:#c79a78"
       d="m 499.5,800.57425 c -13.09879,-4.63152 -33.01809,-17.79726 -38.21437,-20.01794 -3.553,-2.4837 -10.3123,-13.49105 -10.97691,-17.84666 l 1.89956,-11.72912 c 3.24744,6.75019 12.38816,18.15472 19.06738,13.47134 1.20802,-0.84704 2.54926,-0.66044 6.89986,5.08657 8.99172,11.87779 19.58355,17.62918 32.82448,17.82379 9.55001,0.14036 14.49043,-1.17121 20.34057,-7.25391 8.37811,-8.71116 12.92043,-23.34158 13.89753,-31.75836 1.2666,-3.18581 6.11129,-15.3885 7.06076,-17.57606 3.44269,1.16601 7.63134,3.12344 9.86343,5.09168 4.75184,4.45465 9.05936,9.33545 13.33207,22.43967 0.53032,6.3903 -3.41651,11.4462 -8.14013,17.65344 -2.49076,1.7065 -4.2162,2.7829 -9.69136,7.2416 -6.48497,3.34421 -13.74144,7.01075 -31.0864,16.5415 -7.57985,3.88158 -18.91836,4.23018 -27.07647,0.83246 z"
       id="path339"
       sodipodi:nodetypes="ccccsssscccccccc" />
    <path
       style="fill:#6a5954"
       d="m 343.79203,833.4846 c 7.13522,-1.12607 19.12706,-0.83802 32.5538,-6.35409 24.55131,-11.30223 51.29415,-33.91064 72.45917,-36.59108 9.06487,1.34476 16.72345,4.27159 23.96754,7.66473 -26.30134,12.37979 -73.29907,37.28643 -95.63625,42.69356 -7.71478,1.94923 -29.80084,-2.00925 -33.34426,-7.41312 z m 304.0607,11.29515 c -30.38627,-8.02954 -71.71384,-34.04586 -95.18749,-45.52064 9.60082,-5.06203 21.6327,-12.63678 32.24833,-9.19252 23.31486,13.42755 42.82641,26.34717 63.82124,36.96266 14.60717,4.31446 26.91682,2.91307 32.43384,5.21415 -4.15873,6.93465 -26.06161,14.36074 -33.31592,12.53635 z"
       id="path337"
       sodipodi:nodetypes="cccccccccccc" />
    <path
       style="fill:#701518"
       d="m 618.25,571.31067 c 0.9625,-0.25152 2.5375,-0.25152 3.5,0 0.9625,0.25153 0.175,0.45733 -1.75,0.45733 -1.925,0 -2.7125,-0.2058 -1.75,-0.45733 z M 843.66776,517.24575 C 825.21781,519.627 767.29621,499.79036 736.88993,494.45826 670.87966,482.88258 611.80795,475.91955 529.51377,474.66359 c -30.03677,-0.45841 -51.65092,9.39785 -51.50665,-0.83835 63.06018,-12.50762 137.98049,-12.31991 196.81044,-4.70748 8.42466,1.14424 13.98784,1.58972 15.80864,1.58937 -3.77996,-3.19158 -20.84319,-13.27719 -37.2768,-21.53423 -22.16504,-9.80547 -44.95929,-19.2033 -67.92411,-26.16476 9.28958,1.39726 21.05239,2.16211 30.09418,3.5469 64.08843,9.79064 111.98009,23.80848 134.56967,32.70849 18.43762,7.26419 88.66519,49.97786 93.57862,57.98222 z M 539.75,486.33772 c 0.6875,-0.27741 1.8125,-0.27741 2.5,0 0.6875,0.27741 0.125,0.50439 -1.25,0.50439 -1.375,0 -1.9375,-0.22698 -1.25,-0.50439 z M 327.34093,436.2655 c 3.0479,-16.18624 11.62423,-40.75516 20.02498,-55.62233 30.61009,-10.45042 146.96689,-25.98314 183.4905,-26.01368 11.81728,-0.01 83.51114,12.01385 100.15788,16.13982 29.22051,7.24243 41.14986,13.69535 47.19423,16.29761 7.11402,11.51287 9.86329,28.75803 13.21011,45.5298 -131.34546,-18.25838 -249.14831,-17.91321 -364.0777,3.66878 z M 644,361.91475 c -10.48762,-2.89043 -38.71473,-6.86809 -51,-8.80028 -3.575,-0.56226 -8.21215,-1.29305 -10.30478,-1.62397 -14.06229,-2.22378 -33.98862,-1.68972 -58.19522,-2.28131 -24.88422,-0.60816 -26.47403,-0.88595 -36,-1.31846 28.80442,-5.70374 63.72167,-8.1889 86.87946,-8.24995 l 27.87946,-0.0495 -0.60418,-7.04564 C 601.36841,317.54509 590.97753,287.61934 582.82092,275.42419 577.77406,267.8785 566.08569,256.12991 561.01876,253.5097 559.35844,252.65112 558,251.66976 558,251.32891 c 0,-1.00222 18.74619,0.40578 28.35729,2.12987 4.8715,0.87388 13.17272,3.2052 18.44714,5.1807 l 9.58986,3.59182 1.69124,-2.0886 c 4.52256,-5.58513 4.23586,-19.4447 -0.75566,-36.52887 -0.47487,-1.62532 -0.17233,-1.79111 2.18759,-1.1988 7.43212,1.86534 19.654,12.00458 28.5595,23.69287 7.12087,9.34601 10.7015,12.44181 18.42304,15.92854 10.11315,4.56668 29.32351,10.92535 35.03484,11.5966 5.17876,0.60866 5.45556,0.52242 6.41399,-1.99846 1.16001,-3.05106 3.82062,-3.85623 5.26569,-0.88458 1.37886,2.83549 1.27803,4.23809 1.58988,7.96589 0.25974,3.10483 -0.51762,3.59872 4.64791,9.0622 9.8749,10.44448 14.73772,17.50042 20.69635,30.03032 3.25643,6.84767 6.29653,12.03448 6.85232,11.69098 1.5302,-0.94571 1.16843,5.01438 -0.86545,14.25795 -1.77624,8.07269 -3.0064,10.86139 -3.80864,8.63403 -1.28836,-3.57699 -19.0513,-33.64738 -22.59343,-38.2478 -5.03482,-6.53907 -15.31761,-15.25779 -21.32568,-18.08192 -5.32493,-2.50301 -27.77987,-8.37403 -40.62215,-10.62098 -2.04291,-0.35744 -4.10782,-1.16531 -4.58869,-1.79528 -0.48088,-0.62996 -1.92134,-4.97039 -3.20102,-9.64539 -4.56896,-16.69158 -11.60515,-29.78332 -22.30426,-41.5 -6.0018,-6.57261 -8.26266,-7.07881 -4.04524,-0.9057 6.57903,9.62982 12.03862,29.70367 13.15511,48.3688 0.39601,6.62029 0.54701,12.0369 0.33556,12.0369 -0.21145,0 -4.55665,-3.98865 -9.65601,-8.86366 -10.39253,-9.93533 -20.38054,-16.59222 -32.67445,-21.77713 -9.17487,-3.86947 -22.22137,-7.72096 -24.06838,-7.10529 -0.65292,0.21764 1.95137,2.23783 5.78731,4.48931 C 604.72593,276.46918 625.69051,299.62429 642.66285,334 648.87476,346.58158 656,362.40844 656,363.62499 c 0,1.6881 0.6845,1.78565 -12,-1.71024 z"
       id="path333"
       sodipodi:nodetypes="sssscssccccccscssssccsscccsssscccsssssscssssssssssssssssssssssssssssss" />
    <path
       style="fill:#330f0e"
       d="m 390,876.34413 c -10.20755,-1.56589 -9.97485,-1.26579 -2.91164,-3.75488 7.96408,-2.80655 15.65003,-6.69314 18.92118,-9.56795 2.09494,-1.84111 2.17283,-2.08409 0.49046,-1.52999 -10.27663,3.38471 -14.74683,4.00635 -28.5,3.96333 -13.03002,-0.0408 -15.32426,-0.32014 -22.63052,-2.75577 -9.59466,-3.19848 -21.05242,-10.42449 -27.43939,-17.30505 -17.52013,-18.8741 -18.53995,-45.10457 -2.42164,-62.28586 2.37758,-2.53438 5.68873,-5.40785 7.35812,-6.3855 l 3.03524,-1.77753 -3.41825,5.0795 c -3.99952,5.94326 -5.47027,10.60402 -5.47798,17.35955 -0.009,7.91036 1.92469,12.61095 7.49255,18.21325 6.35014,6.38942 12.56587,8.66082 23.56902,8.61277 14.02696,-0.0613 26.30943,-5.15876 41.8149,-17.35414 C 412.9134,796.60643 417.65881,793.29953 424,790.04895 430.9115,786.50603 442.15501,783 446.60534,783 448.4724,783 450,782.748 450,782.44001 c 0,-0.308 -1.55115,-2.59147 -3.447,-5.07439 -4.80412,-6.29177 -5.86404,-10.2179 -5.35854,-19.84895 0.33181,-6.32187 1.06265,-9.52189 3.14818,-13.78457 4.38923,-8.97125 13.06117,-16.75205 21.90736,-19.65613 3.27733,-1.0759 3.75301,-1.63095 3.77386,-4.40352 0.0131,-1.74485 0.43825,-4.95982 0.94474,-7.14438 0.50648,-2.18455 0.73129,-4.16151 0.49957,-4.39323 -0.23172,-0.23172 -3.52835,2.50972 -7.32584,6.09208 -3.7975,3.58237 -9.01755,7.96719 -11.60013,9.74405 -7.29502,5.0191 -20.15349,10.60841 -30.0422,13.05871 -7.84451,1.94378 -10.66903,2.15641 -22,1.65616 -14.78529,-0.65274 -21.47433,-2.20716 -33.34352,-7.74846 -25.08186,-11.70982 -42.9501,-33.73637 -48.81955,-60.18088 -0.88584,-3.99107 -1.72441,-7.39438 -1.8635,-7.56289 -0.13909,-0.16852 -4.07352,-1.20705 -8.74318,-2.30784 -12.21438,-2.87934 -13.10116,-4.04222 -13.57198,-17.79777 -0.40056,-11.70289 0.75744,-15.90215 5.01332,-18.17983 1.68376,-0.90112 18.14104,-3.79242 22.13464,-3.88873 0.44343,-0.0107 1.74267,-2.15694 2.88721,-4.76944 5.55756,-12.68559 18.36757,-27.78156 30.28982,-35.69511 7.57548,-5.02831 18.85686,-10.26378 25.15208,-11.67259 8.80586,-1.97067 6.39325,-3.16603 -4.88534,-2.42051 -19.51809,1.29014 -36.66043,6.64925 -49.79047,15.56569 l -6.26607,4.25521 0.66041,-3.39135 c 1.48428,-7.62215 6.82105,-16.26463 15.15636,-24.54454 l 8.20775,-8.1532 -2.98399,-0.5968 c -1.6412,-0.32824 -6.41524,-0.59904 -10.60899,-0.60177 l -7.625,-0.005 3,-2.4897 c 5.16776,-4.28871 18.10943,-10.27705 26.0078,-12.03428 4.66986,-1.03894 10.25276,-1.5358 14.53688,-1.29372 3.82543,0.21615 6.95532,0.0624 6.95532,-0.34164 0,-1.12413 -8.36176,-6.62704 -14.13251,-9.30067 l -5.15063,-2.38632 3.76323,-0.70598 c 2.06977,-0.38829 8.77098,-0.47968 14.89157,-0.20308 8.89208,0.40184 12.98162,1.12644 20.35085,3.60584 10.20217,3.43254 20.05374,8.08549 25.02749,11.82062 1.7875,1.34235 3.25,2.16037 3.25,1.81782 0,-1.65056 -5.56104,-9.80471 -9.10076,-13.34443 l -3.97478,-3.97478 5.89662,1.37559 c 19.53661,4.55758 38.82938,15.51588 50.61978,28.75204 3.00704,3.37576 5.80077,5.80433 6.20829,5.3968 0.40752,-0.40752 0.24041,-4.2154 -0.37137,-8.46196 -0.61178,-4.24655 -0.88993,-7.9434 -0.61811,-8.21522 0.6179,-0.6179 5.3764,5.02783 9.33347,11.07373 7.08233,10.82089 9.11441,25.32365 4.75686,33.94931 -2.58785,5.12262 -7.7276,8.97 -11.98305,8.97 h -2.93729 l 3.46804,4.75 c 7.29717,9.99455 10.09791,14.72429 12.8025,21.6201 1.61928,4.12861 3.34435,7.05637 4.0981,6.95522 0.71594,-0.0961 4.4517,-1.32408 8.3017,-2.72891 12.0243,-4.38754 23.35246,-3.53856 38.80966,2.90855 1.38839,0.5791 1.95388,0.2008 2.42925,-1.62508 1.28554,-4.93773 9.62143,-20.24445 13.85663,-25.44413 2.42245,-2.97412 4.40446,-5.58134 4.40446,-5.79381 0,-0.21248 -1.76518,-0.66859 -3.92261,-1.01357 -12.85953,-2.05633 -17.09302,-19.5847 -8.88392,-36.78302 C 546.58476,548.7405 554.20457,538 555.85379,538 c 0.44401,0 0.21792,2.8125 -0.50241,6.25 -1.47,7.01498 -1.7357,12.75 -0.59071,12.75 0.41837,0 2.76788,-2.51544 5.22114,-5.58986 5.79014,-7.25621 14.74879,-14.32479 25.16942,-19.85922 C 593.73402,526.99256 610.10462,521 613.97443,521 c 2.04368,0 1.98734,0.19207 -0.90458,3.08399 -3.40922,3.40922 -8.59915,11.72005 -7.81105,12.50814 0.27598,0.27598 2.59082,-0.90809 5.14408,-2.63127 5.65748,-3.81818 18.15104,-9.31911 26.17108,-11.52314 6.79377,-1.86704 24.44249,-3.03242 30.03493,-1.98327 l 3.77945,0.70903 -5.96537,3.18725 c -3.28096,1.75298 -7.53083,4.3037 -9.44417,5.66826 L 651.5,532.5 l 11,0.65901 c 13.27065,0.79504 22.59987,3.82193 33,10.70692 l 7,4.63407 -10.22616,0.55949 c -5.62439,0.30772 -10.47004,0.80338 -10.76811,1.10145 -0.29808,0.29807 1.3239,1.83499 3.60439,3.41537 7.75908,5.37705 16.97081,18.78815 19.69519,28.67369 0.56841,2.0625 0.88997,3.75 0.71457,3.75 -0.1754,0 -2.72662,-1.6225 -5.66939,-3.60556 -14.93091,-10.06156 -36.16902,-16.37914 -55.10049,-16.39042 -7.51562,-0.004 -9.00645,1.37954 -2.59103,2.40541 6.37107,1.01878 18.32277,6.356 26.53935,11.85159 13.1088,8.7677 25.84222,23.42664 31.70355,36.49771 1.04604,2.3327 2.39604,4.25002 3,4.26071 0.60397,0.0107 5.55275,0.65054 10.99728,1.42188 8.2666,1.17114 10.32807,1.83103 12.5,4.00129 2.40086,2.39902 2.62775,3.38123 2.95066,12.77332 0.41736,12.13961 -0.81021,17.20692 -4.63821,19.14598 -1.49138,0.75546 -6.09441,2.11548 -10.22896,3.02228 l -7.51735,1.64871 -2.19258,9.23355 c -7.88955,33.22496 -34.97678,59.04967 -68.62467,65.42609 C 624.5483,739.9855 607.09449,739.05565 596,735.52702 581.54135,730.92842 567.41084,722.31825 557.54705,712.09643 555.37293,709.84339 553.32457,708 552.99513,708 c -0.51331,0 0.65431,10.32742 1.53956,13.61721 0.16535,0.61447 3.2405,2.49295 6.83368,4.1744 11.71908,5.48402 19.26367,15.44108 21.70451,28.6448 1.72319,9.32159 -2.48755,22.57441 -8.13226,25.59537 -2.67969,1.43413 -1.53022,2.96822 2.22405,2.96822 10.86361,0 25.69478,7.11483 41.99697,20.14683 7.47334,5.9742 15.88707,11.65364 21.33836,14.40382 20.32995,10.25648 39.63185,9.05888 50.35596,-3.12435 2.13317,-2.42341 4.44915,-6.4444 5.14663,-8.93554 2.53975,-9.07111 -0.24846,-21.50969 -6.36544,-28.39707 l -2.13715,-2.40631 3.35248,1.90631 c 5.65067,3.21312 13.76935,12.79469 16.20229,19.12173 3.07143,7.98749 3.71277,20.11969 1.4736,27.87594 -4.20114,14.55229 -15.22442,27.49455 -29.52953,34.67013 -12.05234,6.04558 -22.08993,8.09683 -36.46789,7.45248 -7.44923,-0.33384 -14.60154,-1.28297 -18.78095,-2.49229 -3.7125,-1.07421 -6.75,-1.72565 -6.75,-1.44764 0,1.76234 10.93811,7.64122 20,10.74936 l 6.5,2.22943 -4,0.87358 c -2.2,0.48048 -10.525,0.82018 -18.5,0.75489 -12.14128,-0.0994 -16.09048,-0.53849 -24.27735,-2.69933 -12.08763,-3.19042 -27.3356,-10.30528 -35.02883,-16.34483 -3.1934,-2.50696 -6.00175,-4.36254 -6.24079,-4.1235 -0.65106,0.65105 6.29651,11.88253 9.3012,15.03636 3.43197,3.60232 1.88314,3.49701 -8.89596,-0.60489 -17.5435,-6.67603 -33.0034,-18.50854 -39.88965,-30.53026 -1.90774,-3.33046 -3.69439,-6.06875 -3.97034,-6.08511 -0.27594,-0.0164 -1.61931,2.10776 -2.98526,4.72026 -3.39474,6.49274 -17.10806,19.93514 -25.01318,24.51901 -8.85849,4.45638 -17.81612,8.64284 -27.38275,11.04391 l 4.08329,-4.90646 C 464.40535,861.95458 469,854.17449 469,852.35275 c 0,-0.39981 -1.2375,0.3953 -2.75,1.76692 -11.58363,10.50468 -32.03484,19.3315 -50.57236,21.8272 -7.48949,1.00832 -20.39299,1.20794 -25.67764,0.39726 z m -5,-40.0143 c 9.85963,-3.26216 16.82895,-7.05565 29.2598,-15.92647 21.73195,-15.50822 31.65691,-20.22568 44.7402,-21.26559 7.38765,-0.5872 8.21707,-0.83516 6.33799,-1.89479 -1.18911,-0.67054 -5.35502,-1.76671 -9.25757,-2.43592 -13.42988,-2.30297 -24.90143,2.15316 -43.97002,17.08016 -13.15742,10.2997 -22.97621,16.17556 -33.30414,19.9302 -6.40451,2.3283 -8.81807,2.65776 -19.55531,2.66935 -6.73698,0.007 -12.24948,0.11417 -12.25,0.23755 -0.003,0.72768 6.79049,3.5386 10.32545,4.27227 6.43047,1.33463 19.33958,0.0906 27.6736,-2.66676 z m 288.22098,0.24465 c 3.49298,-1.70985 4.31962,-2.39962 2.44331,-2.03874 -6.27239,1.20637 -20.27823,0.48851 -26.66429,-1.36666 -12.12598,-3.52263 -19.90719,-8.14709 -42.07309,-25.00448 -17.21777,-13.09429 -29.22699,-16.60633 -42.99541,-12.57381 -7.59521,2.2245 -7.97972,3.12198 -1.40252,3.27361 13.12026,0.30247 24.31355,5.24238 45.47102,20.06765 15.34951,10.75557 19.99585,13.47426 27.57991,16.13772 15.99097,5.61589 28.24206,6.10563 37.64107,1.50471 z M 526.51069,798.06935 c 7.86405,-3.87146 14.83464,-11.3734 20.43006,-21.98742 l 3.99699,-7.58193 0.0311,5.25 c 0.0171,2.8875 0.2433,5.25 0.50262,5.25 0.25931,0 3.07181,-1.14838 6.25,-2.55195 13.77994,-6.0856 17.50827,-16.16751 10.84297,-29.32084 -2.35971,-4.65667 -9.19144,-11.78684 -13.50582,-14.09583 -2.61491,-1.39945 -2.38455,-1.60622 -3.86436,3.46862 -0.64151,2.2 -2.24409,5.76624 -3.56127,7.92498 l -2.39488,3.92498 -0.66389,-7.42498 C 542.71288,720.10733 541.39407,712.39693 535.52177,688 c -3.50818,-14.575 -7.12339,-29.9537 -8.03381,-34.1749 -1.61377,-7.4823 -1.75409,-7.71443 -5.59187,-9.25 -5.32633,-2.13117 -15.45658,-2.04133 -19.89609,0.17645 -2.91282,1.45512 -3.71062,2.58728 -4.75546,6.74845 C 484.66895,701.58366 480,725.98093 480,741.61023 c 0,4.84396 -0.36156,7.28435 -1.01902,6.87802 -1.46413,-0.90489 -5.97816,-10.09284 -5.99629,-12.20501 -0.008,-0.98078 -0.41265,-2.41073 -0.89828,-3.17767 -1.19826,-1.89235 -6.37778,1.31713 -12.04141,7.46143 -5.28997,5.73894 -7.24522,10.39542 -7.30904,17.40665 -0.0832,9.1379 3.96842,14.39881 14.59805,18.9552 2.65749,1.13913 5.01949,2.07115 5.2489,2.07115 0.2294,0 0.41727,-2.5875 0.4175,-5.75 l 4.1e-4,-5.75 3.99523,8.01219 c 11.56727,23.19746 30.60073,31.86845 49.51464,22.55716 z m -111.2533,-78.49158 c 24.11065,-4.61313 43.57406,-20.95131 52.17246,-43.79517 9.03114,-23.99352 2.47833,-52.14916 -16.4736,-70.7826 -7.99664,-7.86226 -16.75641,-13.17424 -27.45625,-16.64965 -10.14866,-3.29639 -26.31034,-3.74664 -36.5,-1.01687 -24.1349,6.46564 -43.09764,25.50884 -49.58375,49.79411 -4.60451,17.2402 -0.39361,39.85963 10.02903,53.87241 7.97876,10.72707 22.57352,22.18478 32.42828,25.458 13.56266,4.5048 23.54493,5.38493 35.38383,3.11977 z M 395.16436,708.5023 c 0.27374,-0.27373 3.90082,-1.36806 8.0602,-2.43185 26.12561,-6.68181 47.58246,-28.35615 53.44978,-53.99158 l 1.73462,-7.57887 0.71783,5.5 c 2.57465,19.72685 -7.05066,39.78653 -24.55466,51.1733 C 425.77758,706.89436 417.88305,709 405.228,709 c -5.80873,0 -10.33737,-0.22396 -10.06364,-0.4977 z M 348.07955,652 c -0.0653,-12.29343 1.26152,-18.05058 6.42466,-27.87606 6.29857,-11.9862 18.31095,-21.6775 31.35131,-25.29348 6.49439,-1.80084 23.05913,-2.58248 24.48618,-1.15542 0.37127,0.37127 -2.54084,1.49172 -6.47136,2.48988 -14.17634,3.60012 -25.36189,10.31269 -36.03114,21.62266 -7.64693,8.10614 -14.99752,21.62294 -16.8006,30.89412 -2.07258,10.65693 -2.89979,10.46636 -2.95905,-0.6817 z M 637.5,718.50162 c 24.69182,-6.55187 44.19317,-26.96044 49.87865,-52.19903 3.30297,-14.66233 1.4185,-28.22546 -6.01347,-43.28086 C 672.91346,605.90054 656.39773,592.34831 638,587.4378 c -8.853,-2.36294 -25.42703,-2.4363 -34,-0.1505 -12.40442,3.30739 -20.65939,8.21033 -30.53176,18.13401 C 559.15784,619.80608 553,634.25539 553,653.44986 c 0,11.09431 1.77473,18.51439 6.94818,29.05014 6.8717,13.99421 16.89488,23.85561 31.55182,31.04256 4.95,2.42721 12.15,5.09151 16,5.92067 8.30136,1.78783 21.19595,1.37451 30,-0.96161 z m -24.32774,-10.00721 c 0.27807,-0.27808 3.61683,-1.32242 7.41947,-2.32077 9.12497,-2.39569 21.51888,-8.93616 29.66255,-15.65344 11.36535,-9.37468 19.88425,-23.53803 23.65455,-39.32759 l 1.83687,-7.69261 0.73373,6.65737 c 2.84394,25.80413 -13.30552,49.87311 -38.41093,57.24725 -4.98153,1.46321 -26.19839,2.39194 -24.89624,1.08979 z M 565.72412,660 c -0.38325,-1.375 -0.70296,-6.13082 -0.71047,-10.5685 -0.0249,-14.71359 5.29929,-27.03923 16.41679,-38.00532 9.56928,-9.43896 18.74624,-13.48278 32.22773,-14.20111 5.037,-0.26839 10.437,-0.15985 12,0.2412 2.52205,0.64713 1.99797,0.94528 -4.65745,2.64959 -4.1246,1.05623 -11.3246,3.80349 -16,6.10502 -6.8769,3.38525 -10.22597,5.91281 -17.53248,13.23186 -11.68217,11.70223 -18.21391,24.00326 -20.34259,38.31065 -0.60199,4.0461 -0.8063,4.37216 -1.40153,2.23661 z M 327.11353,633 C 335.4548,606.69203 355.92239,585.25607 383,577.84303 c 16.33205,-4.47123 33.72371,-3.93644 47.75,0.80309 5.0875,1.72832 9.25,2.93676 9.25,2.68542 0,-1.00207 -13.39128,-6.44697 -19.2575,-7.83012 -9.64619,-2.27438 -29.52251,-1.98674 -38.7626,0.56096 -22.5445,6.21602 -41.28415,21.64716 -51.35453,42.28782 -5.01566,10.28032 -7.46364,19.27895 -7.65783,28.1498 -0.24532,11.20699 0.29882,13.03072 1.19347,4 0.49039,-4.95 1.81903,-11.925 2.95252,-15.5 z m 217.3429,-0.49812 c 6.28635,-21.62429 24.16036,-41.80875 45.30302,-51.15904 17.82302,-7.88218 45.70309,-8.53999 61.71724,-1.45618 2.48782,1.10049 4.52331,1.60889 4.52331,1.1298 0,-1.05954 -13.93581,-6.52627 -20.64676,-8.09931 -8.04937,-1.88676 -26.67305,-1.35157 -35.79926,1.02877 -23.27782,6.07144 -40.58621,20.3365 -51.63263,42.55408 -5.41027,10.88162 -7.92853,20.55023 -7.81374,30 l 0.0729,6 1.28076,-7.0504 c 0.70443,-3.87771 2.05225,-9.70419 2.99517,-12.94772 z m -242.02538,9.50105 c 0.7812,-7.92796 1.46115,-8.63547 9.27863,-9.65468 9.01079,-1.1748 10.00001,-4.34825 1.35542,-4.34825 -6.20059,0 -10.99562,1.29353 -12.27944,3.31256 -1.05604,1.66083 -0.97891,17.68744 0.0851,17.68744 0.47893,0 1.18105,-3.14868 1.56026,-6.99707 z M 302.14448,595.5 c -7.20812,-17.25494 -6.74656,-16.5 -10.0879,-16.5 -6.40209,0 -58.02682,-9.33538 -74.41561,-13.45669 -27.01986,-6.79472 -45.76846,-14.68134 -52.78858,-22.20558 -13.11511,-14.05692 -7.57499,-28.06486 17.85587,-45.14767 18.63297,-12.51643 52.27992,-30.08472 80.54956,-42.05783 12.9591,-5.48861 45.96393,-18.23658 53.37557,-20.61609 0.62337,-0.20013 2.51024,-3.88564 4.19305,-8.19001 1.68281,-4.30437 4.2561,-10.70777 5.71841,-14.22976 1.46232,-3.522 3.77444,-10.92395 5.13804,-16.44878 3.17439,-12.86149 4.9596,-16.24488 11.5358,-21.86311 4.7847,-4.0877 5.94646,-5.92317 10.71866,-16.93454 13.63724,-31.46657 42.60145,-86.92973 52.77772,-101.06333 6.56222,-9.11413 22.37877,-24.74478 30.28493,-29.92898 20.46205,-13.41732 94.25993,-51.02635 116.26749,-59.25248 44.82663,-16.75561 72.96994,-7.97937 138.73251,43.26248 37.73429,29.40237 49.16647,40.55794 56.49099,55.12415 12.67294,25.2026 16.19229,65.94447 7.85133,90.89102 -3.3858,10.12639 -11.7534,14.47924 -20.67113,10.75317 -4.08972,-1.70879 -7.93163,-6.22794 -11.78623,-13.86387 -10.75597,-21.30745 -22.50126,-37.11647 -31.49081,-42.38628 -5.88137,-3.44775 -17.10259,-7.0644 -29.10453,-9.38053 -14.72987,-2.84258 -13.5603,-3.39978 -13.10763,6.24471 0.36756,7.83102 0.74406,8.9864 7.41334,22.75 3.86436,7.975 9.47378,20.08873 12.46539,26.91941 4.92121,11.23652 5.8938,12.74708 10.21142,15.85971 6.07143,4.37698 9.08249,9.66562 11.22799,19.72088 2.02289,9.48068 4.68129,17.32166 10.6206,31.32564 l 4.37927,10.32565 18.5,6.74593 c 44.02441,16.05327 94.88888,40.7862 118.63698,57.68742 C 859.28343,510.72001 866,519.25436 866,528 c 0,16.70374 -20.31041,28.63868 -67,39.37096 -16.01207,3.68061 -51.32067,10.00354 -63.42654,11.35819 l -6.8887,0.77085 -4.13633,10 c -6.36848,15.39643 -6.14435,15.36907 -6.91523,0.84435 -0.90421,-17.03691 -3.95179,-37.66803 -8.10146,-54.84435 -4.55376,-18.84887 -4.62905,-19.00949 -10.24315,-21.85025 -22.08752,-11.17641 -66.67453,-20.51302 -120.78859,-25.2934 -28.42206,-2.51078 -103.50842,-2.51429 -132,-0.006 -49.46928,4.35477 -87.36708,11.59683 -113.31638,21.65413 -13.10791,5.08029 -13.47326,5.43807 -16.46902,16.12761 -5.04888,18.01556 -9.05258,43.13796 -10.49726,65.86809 l -0.73092,11.5 -3.34194,-8 z M 193.86174,511.99111 c 36.43395,-13.29674 97.58857,-25.35064 164.63826,-32.45106 58.71773,-6.21809 95.2076,-8.04243 159.5,-7.97431 52.61335,0.0557 66.70672,0.56403 111,4.00332 48.89782,3.79684 100.1575,11.44041 137.64886,18.94345 23.29111,4.66118 49.35225,13.5222 70.70823,19.20179 -6.55318,-5.43172 -31.21225,-19.79861 -51.03078,-29.30544 C 724.63147,454.81419 668.20887,436.36804 614,428.07048 c -7.425,-1.13652 -17.325,-2.74903 -22,-3.58336 -4.675,-0.83432 -15.925,-2.2626 -25,-3.17394 -20.98063,-2.10695 -84.18047,-2.43413 -103.5,-0.53582 -56.91004,5.59192 -96.4927,13.74607 -144,29.66445 -45.25321,15.1631 -96.60731,38.98668 -128.25728,59.49959 -4.25849,2.76001 -7.26635,5.02729 -6.68412,5.0384 0.58222,0.0111 4.76864,-1.3338 9.30314,-2.98869 z M 414,411.54383 c 52.59529,-8.36294 115.63313,-9.85315 167.5,-3.95971 29.11685,3.30844 68.90825,10.87727 92.11153,17.52077 13.11032,3.75372 13.58162,3.74762 12.22008,-0.15808 -1.64678,-4.72395 -4.24879,-5.91257 -30.33161,-13.8557 -23.92773,-7.28682 -61.97413,-15.1561 -83.39168,-17.24821 -0.88458,-0.0864 0.64168,-0.47359 3.39168,-0.8604 5.35726,-0.75354 44.01099,-0.29253 49,0.58442 2.85038,0.50102 2.90322,0.45018 1.05957,-1.01929 -4.64297,-3.70065 -29.40771,-11.9306 -48.55957,-16.13758 -11.17478,-2.4547 -8.01662,-2.9473 5.65533,-0.88211 5.96457,0.90097 13.68933,2.05348 17.16613,2.56114 17.63951,2.57562 38.40861,8.09221 65.74037,17.46168 5.534,1.89708 10.42158,3.44924 10.86129,3.44924 0.94714,0 -0.18237,-6.68164 -1.56681,-9.2685 -2.73509,-5.11056 -42.43808,-16.44316 -79.85631,-22.79373 -50.19187,-8.5185 -109.11297,-9.05546 -157.58275,-1.43609 -34.06258,5.35459 -76.2451,15.9788 -85.11464,21.43722 -3.37803,2.07888 -5.42951,7.05603 -6.87132,16.6707 -0.65317,4.35567 -0.56433,4.65113 1.18121,3.92847 1.03812,-0.42979 4.51358,-1.46677 7.72324,-2.30442 5.88226,-1.62517 9.08832,-2.25796 22.28065,-4.65851 7.08598,-1.33367 15.80861,-2.67785 19.38361,-2.98706 l 6.5,-0.56221 -9.5,2.48737 c -16.93258,4.43344 -49.67408,15.46915 -51.3328,17.30201 -1.4618,1.61527 -4.6672,9.31307 -4.6672,11.20833 24.33123,-7.13934 49.8481,-12.02795 77,-16.47975 z m -26.5,-51.06967 c 25.11644,-6.37833 50.40923,-10.71688 79.5,-13.63688 62.59557,-3.80794 127.56997,-0.1976 187.25,17.75772 2.7874,0.85977 2.16897,-1.4498 -3.80768,-14.22 -8.00094,-17.09545 -9.29233,-19.62624 -16.43242,-32.20324 -13.81276,-24.33069 -33.93117,-44.43022 -59.48434,-59.42852 -3.83594,-2.25148 -6.44023,-4.27167 -5.78731,-4.48931 1.84701,-0.61567 14.89351,3.23582 24.06838,7.10529 12.29391,5.18491 22.28192,11.8418 32.67445,21.77713 5.09936,4.87501 9.44456,8.86366 9.65601,8.86366 0.21145,0 0.0605,-5.41661 -0.33556,-12.0369 -1.11649,-18.66513 -6.57608,-38.73898 -13.15511,-48.3688 -4.21742,-6.17311 -1.95656,-5.66691 4.04524,0.9057 10.69911,11.71668 17.7353,24.80842 22.30426,41.5 1.27968,4.675 2.72014,9.01543 3.20102,9.64539 0.48087,0.62997 2.54578,1.43784 4.58869,1.79528 12.84228,2.24695 35.29722,8.11797 40.62215,10.62098 6.00807,2.82413 16.29086,11.54285 21.32568,18.08192 3.54213,4.60042 21.30507,34.67081 22.59343,38.2478 1.31512,3.65132 4.25315,-7.45136 5.61422,-21.21596 1.15871,-11.71806 0.0333,-22.87027 -3.94395,-39.08114 -4.26685,-17.39146 -7.49055,-23.60081 -17.81078,-34.30641 -20.06774,-20.8171 -76.07034,-62.68374 -98.50486,-73.64064 C 589.27769,166.36777 574.90579,169.72911 484.5,217.16714 450.92344,234.78554 441.60471,240.69095 431.11182,251 420.83583,261.09595 416.6095,267.28084 402.70467,292.57159 389.89252,315.87492 367,362.79527 367,365.75162 c 6.99895,-1.40752 14.61028,-3.77894 20.5,-5.27746 z"
       id="path331"
       sodipodi:nodetypes="ssssssssscssssssssssssssssssssssssssssssscsscsscssssscsssssscsssssssscssssssssssssssssssssscsscsscsssssscssssssssscssssssssssssssscsssssssscssssssssssccsssssssssssscsssssssssssssscssssssscsssssssscsssssscsssssssssssssscssssssssssssssssssssssssssscssssssssssssssscssssssssssssssscsssssssssssssssssssssssssssssssssssssscssssscssssscsssccsssssscssssssssscsssssssssssssssssssccscsscccccssssssscssssssssssssssscc" />
  </g>
</svg>
