<?xml version="1.0" encoding="UTF-8" standalone="no"?>
<!-- Created with Inkscape (http://www.inkscape.org/) -->

<svg
   width="110mm"
   height="110mm"
   viewBox="0 0 110 110"
   version="1.1"
   id="svg906"
   inkscape:version="1.2.2 (b0a8486541, 2022-12-01)"
   sodipodi:docname="cpu.svg"
   xmlns:inkscape="http://www.inkscape.org/namespaces/inkscape"
   xmlns:sodipodi="http://sodipodi.sourceforge.net/DTD/sodipodi-0.dtd"
   xmlns="http://www.w3.org/2000/svg"
   xmlns:svg="http://www.w3.org/2000/svg">
  <sodipodi:namedview
     id="namedview908"
     pagecolor="#ffffff"
     bordercolor="#000000"
     borderopacity="0.25"
     inkscape:showpageshadow="2"
     inkscape:pageopacity="0.0"
     inkscape:pagecheckerboard="0"
     inkscape:deskcolor="#d1d1d1"
     inkscape:document-units="mm"
     showgrid="false"
     inkscape:zoom="0.93806818"
     inkscape:cx="118.8613"
     inkscape:cy="-113.53119"
     inkscape:window-width="2560"
     inkscape:window-height="1401"
     inkscape:window-x="2560"
     inkscape:window-y="0"
     inkscape:window-maximized="1"
     inkscape:current-layer="layer1" />
  <defs
     id="defs903" />
  <g
     inkscape:label="Layer 1"
     inkscape:groupmode="layer"
     id="layer1"
     transform="translate(-73.52955,-178.73485)">
    <path
       d="m 99.211912,287.96622 -1.770935,-0.008 -0.463021,-0.26968 -0.463021,-0.26969 v -3.50343 -3.50343 l -2.977967,-0.28002 -2.977965,-0.28002 -1.56197,-0.76483 -1.561971,-0.76482 -1.214749,-1.09807 -1.214753,-1.09807 -0.848693,-1.41811 -0.848691,-1.41811 -0.40808,-1.57694 -0.408077,-1.57695 v -1.79649 -1.7965 h -3.689164 -3.689162 l -0.41188,-0.58804 -0.411877,-0.58803 0.004,-1.72707 0.004,-1.72706 0.250175,-0.39688 0.250174,-0.39687 3.780671,-0.1323 3.78067,-0.13229 v -4.49791 -4.49792 l -3.559944,-0.0742 -3.559945,-0.0742 -0.474951,-0.42982 -0.474951,-0.42983 v -1.90236 -1.90236 l 0.483854,-0.43788 0.483854,-0.43788 h 3.617188 3.617186 v -4.49792 -4.49792 h -3.157774 -3.157776 l -0.739444,-0.28113 -0.739445,-0.28114 -0.199771,-0.31417 -0.199768,-0.31418 -0.004,-1.72707 -0.004,-1.72706 0.411877,-0.58804 0.411879,-0.58804 h 3.695412 3.695411 l -0.0724,-4.56406 -0.07239,-4.56406 -3.559944,-0.0742 -3.559945,-0.0742 -0.474951,-0.42983 -0.474951,-0.42982 v -1.7522 -1.75221 l 0.411877,-0.58804 0.411879,-0.58804 h 3.689162 3.689164 V 212.03892 207.541 H 78.920145 75.34827 l -0.529166,-0.52917 -0.529167,-0.52916 v -1.79321 -1.79322 l 0.411877,-0.58803 0.411879,-0.58804 h 3.689162 3.689164 v -2.0888 -2.0888 l 0.523203,-1.69393 0.523206,-1.69394 1.002533,-1.435 1.002532,-1.435 1.318533,-1.00186 1.318535,-1.00186 1.455208,-0.56461 1.455209,-0.56462 2.976562,-0.12825 2.976562,-0.12825 v -3.78427 -3.78426 l 0.415775,-0.41579 0.415771,-0.41576 h 1.850578 1.850574 l 0.51177,0.27389 0.51178,0.2739 v 3.95944 3.95943 h 4.36562 4.36563 v -3.82145 -3.82146 l 0.58804,-0.41188 0.58803,-0.41187 h 1.89311 1.89311 l 0.36312,0.43706 0.36313,0.43704 0.0558,3.73015 0.0558,3.73012 4.24373,0.0727 4.24372,0.0727 v -3.65184 -3.65186 l 0.41187,-0.58804 0.41188,-0.58803 h 2.08666 2.08666 l 0.41188,0.58803 0.41188,0.58804 v 3.64529 3.6453 h 4.34202 4.34201 l -0.0425,-3.79399 -0.0425,-3.79402 0.36312,-0.43931 0.36313,-0.43934 h 2.04326 2.04326 l 0.43789,0.48387 0.43788,0.48384 v 3.74949 3.74946 h 4.36563 4.36563 v -3.95943 -3.95944 l 0.51177,-0.2739 0.51178,-0.27389 h 1.82846 1.82847 l 0.43789,0.48387 0.43788,0.48384 v 3.74949 3.74946 h 2.32566 2.32566 l 1.55714,0.40559 1.55713,0.40558 1.3026,0.70896 1.3026,0.70897 1.20499,1.33285 1.20498,1.33285 0.81257,1.71979 0.81256,1.71979 0.10311,2.71198 0.1031,2.71198 h 3.63315 3.63315 l 0.43788,0.48385 0.43789,0.48386 v 1.89739 1.8974 l -0.52917,0.52916 -0.52917,0.52917 h -3.57187 -3.57188 v 4.49792 4.49791 h 3.68917 3.68916 l 0.41188,0.58804 0.41188,0.58804 v 1.74264 1.74264 l -0.33073,0.44285 -0.33073,0.44284 -3.70417,0.0708 -3.70417,0.0708 v 4.49791 4.49792 l 3.78068,0.13229 3.78067,0.13229 0.25017,0.39688 0.25017,0.39687 0.004,1.86766 0.004,1.86766 -0.37498,0.51359 -0.37498,0.51359 -3.73237,0.0863 -3.73237,0.0863 0.0725,4.41166 0.0725,4.41167 3.55994,0.0742 3.55995,0.0742 0.47495,0.42983 0.47495,0.42982 v 1.92447 1.92447 l -0.41578,0.41577 -0.41577,0.41578 h -3.69151 -3.69152 l 0.0724,4.56406 0.0724,4.56406 3.70416,0.0707 3.70417,0.0708 0.33073,0.44284 0.33073,0.44284 v 1.8928 1.8928 l -0.47496,0.42982 -0.47495,0.42983 -3.55994,0.0742 -3.55995,0.0742 -0.16975,2.60307 -0.16975,2.60307 -0.95716,1.93667 -0.95715,1.93666 -1.4534,1.32833 -1.4534,1.32832 -1.51266,0.71561 -1.51268,0.71562 -2.98462,0.27737 -2.98462,0.27738 v 3.51455 3.51454 l -0.51178,0.27389 -0.51177,0.27389 h -1.72218 -1.72219 l -0.41188,-0.58804 -0.41187,-0.58803 5.2e-4,-3.31457 5.3e-4,-3.31457 -3.1755,0.0817 -3.1755,0.0817 v 3.38302 3.38302 l -0.48385,0.43788 -0.48385,0.43788 h -1.74621 -1.7462 l -0.41577,-0.41577 -0.41584,-0.41578 v -3.42068 -3.42068 h -3.30729 -3.30729 v 3.51895 3.51896 l -0.3175,0.3175 -0.3175,0.3175 h -1.91646 -1.91645 l -0.41188,-0.58804 -0.41188,-0.58803 v -3.24842 -3.24842 h -3.175 -3.175 v 3.39857 3.39858 l -0.48385,0.43788 -0.48386,0.43788 h -1.7462 -1.74621 l -0.41577,-0.41577 -0.41577,-0.41578 v -3.42068 -3.42068 h -3.3073 -3.30729 v 3.42068 3.42068 l -0.41577,0.41578 -0.41578,0.41577 h -1.81817 -1.81819 l -0.41188,-0.58804 -0.41187,-0.58803 v -3.24842 -3.24842 h -3.175 -3.175 v 3.24842 3.24842 l -0.41188,0.58803 -0.41188,0.58804 -1.77094,-0.008 z m 0.509704,-13.23148 7.307714,0.0104 -0.002,-0.46302 -0.002,-0.46303 0.0363,-4.18652 0.0363,-4.18653 3.88103,-3.93978 3.88104,-3.93977 0.21595,-0.34037 0.21596,-0.34036 0.004,-1.78594 0.004,-1.78592 h 1.32291 1.32292 v 2.26209 2.2621 l -0.37871,0.71447 -0.37871,0.71446 -3.72233,3.70062 -3.72233,3.70063 v 4.03844 4.03844 h 3.57187 3.57188 l 0.002,-3.63802 0.002,-3.63803 0.2576,-0.92718 0.2576,-0.92719 1.98988,-1.97661 1.98966,-1.9766 v -4.17381 -4.17381 h 1.32292 1.32292 v 4.63914 4.63914 l -2.10299,2.23262 -2.10299,2.23261 -0.0798,3.84428 -0.0798,3.84428 3.77031,-5.3e-4 3.77032,-2.6e-4 V 264.02952 253.3139 h 1.32291 1.32292 v 10.71562 10.71563 h 3.83646 3.83646 v -3.7531 -3.7531 l -2.24896,-2.29825 -2.24896,-2.29825 v -4.66427 -4.66428 h 1.32292 1.32291 v 4.13337 4.13337 l 2.18282,2.23558 2.18281,2.23559 0.084,4.34667 0.0839,4.34667 h 3.55407 3.55407 l -7.9e-4,-4.0349 -8e-4,-4.0349 -3.56968,-3.57187 -3.56969,-3.57187 -0.53066,-0.82498 -0.53067,-0.82499 v -2.28387 -2.28387 h 1.32292 1.32292 v 1.91522 1.91522 l 4.16718,4.17262 4.16719,4.17262 0.0832,4.62778 0.0832,4.62779 h 7.1352 7.13519 l 0.98369,-0.4098 0.98369,-0.40979 1.00021,-0.97465 1.00021,-0.97466 0.38885,-1.30941 0.38906,-1.3094 v -6.83115 -6.83114 h -4.6627 -4.66269 l -4.15172,-4.10104 -4.15173,-4.10105 h -1.90121 -1.9012 v -1.32291 -1.32292 h 2.56101 2.56102 l 4.13009,4.10104 4.13008,4.10104 h 4.02452 4.02453 v -3.70416 -3.70417 h -4.39796 -4.39795 l -2.16855,-2.11667 -2.16855,-2.11666 h -4.14912 -4.14912 v -1.32292 -1.32292 h 4.66253 4.66254 l 2.16855,2.11667 2.16854,2.11667 h 3.88454 3.88455 v -3.70417 -3.70417 h -10.71563 -10.71562 v -1.32291 -1.32292 h 10.71562 10.71563 v -3.70417 -3.70416 h -3.90882 -3.90881 l -2.10993,2.12238 -2.10994,2.12238 -4.75871,-0.0719 -4.75872,-0.0719 -0.004,-1.19063 -0.004,-1.19062 4.22244,-0.0731 4.22244,-0.0731 2.16138,-2.10967 2.16137,-2.10967 h 4.39796 4.39795 v -3.70416 -3.70417 h -4.02452 -4.02452 l -4.13009,4.10104 -4.13008,4.10104 h -2.53323 -2.53323 l -0.11887,-1.12448 -0.11887,-1.12447 0.10669,-0.19844 0.1067,-0.19844 h 2.03811 2.03811 l 4.09464,-4.10104 4.09464,-4.10104 h 4.58216 4.58217 l -0.0811,-7.60677 -0.0811,-7.60677 -0.49396,-0.92605 -0.49398,-0.92604 -0.56436,-0.62106 -0.56436,-0.62106 -1.05834,-0.56956 -1.05833,-0.56957 -7.34219,-0.0815 -7.34218,-0.0815 v 4.68558 4.68559 l -4.10105,4.15324 -4.10104,4.15324 -0.0341,0.76765 -0.0341,0.76765 0.0585,1.25677 0.0585,1.25677 h -1.47953 -1.47954 v -2.42872 -2.42873 l 4.10105,-4.13008 4.10104,-4.13009 v -4.2891 -4.28911 h -3.57188 -3.57187 v 4.24647 4.24648 l -0.37729,0.71446 -0.37728,0.71447 -1.87167,1.84498 -1.87168,1.84499 v 4.04199 4.04199 h -1.32291 -1.32292 v -4.48871 -4.48871 l 0.84245,-1.00139 0.84246,-1.00139 1.42327,-1.47983 1.42328,-1.47984 -0.0829,-3.81183 -0.0829,-3.81184 -3.77031,-0.0734 -3.77031,-0.0734 v 10.85518 10.85518 h -1.31995 -1.31995 l -0.0691,-10.78177 -0.0691,-10.78177 -3.63802,-0.0736 -3.63802,-0.0736 v 4.00664 4.00664 l 2.11667,2.23612 2.11667,2.23611 v 4.61263 4.61262 h -1.32292 -1.32292 v -4.00673 -4.00673 l -2.09389,-2.18104 -2.09388,-2.18105 -0.17929,-1.43498 -0.17929,-1.43499 0.0788,-1.57151 0.0788,-1.57151 -0.0546,-1.65364 -0.0546,-1.65365 h -3.57188 -3.57187 v 4.27338 4.27338 l 4.10104,4.15324 4.10104,4.15324 v 2.3772 2.3772 l -0.11363,0.11363 -0.11364,0.11364 -1.20928,-0.0962 -1.20928,-0.0962 v -1.85793 -1.85793 l -4.1495,-4.20076 -4.14949,-4.20077 -0.0177,-4.69644 -0.0177,-4.69643 h -7.429745 -7.429748 l -1.294506,0.80075 -1.294506,0.80074 -0.800743,1.29441 -0.800745,1.29441 -0.08105,7.62829 -0.08105,7.62828 h 4.682953 4.682955 l 4.034725,4.0894 4.03472,4.0894 2.079,0.0778 2.07899,0.0778 0.0806,1.25677 0.0807,1.25677 h -2.70781 -2.7078 l -4.13009,-4.10104 -4.130085,-4.10104 h -4.025658 -4.024522 v 3.70417 3.70416 h 4.397955 4.397951 l 2.161376,2.10967 2.161373,2.10967 4.22244,0.0731 4.22244,0.0731 v 1.19062 1.19063 l -4.72232,0.0724 -4.722311,0.0724 -2.174912,-2.12288 -2.17491,-2.12287 H 91.66076 87.768752 l 0.07361,3.63802 0.07361,3.63802 10.796145,0.0691 10.796133,0.0691 -0.0805,1.25379 -0.0805,1.25379 -10.781759,0.0691 -10.781771,0.0691 v 3.7012 3.7012 h 3.884541 3.884541 l 2.168546,-2.11667 2.168549,-2.11667 h 4.809323 4.80933 l -0.0807,1.25677 -0.0806,1.25678 -4.22244,0.0731 -4.22245,0.0731 -2.161368,2.10966 -2.161376,2.10967 H 92.18164 87.783685 v 3.70417 3.70416 h 4.024522 4.024524 l 4.130085,-4.10104 4.130084,-4.10104 h 2.69331 2.6933 v 1.32292 1.32291 h -2.04741 -2.04742 l -4.04038,4.0349 -4.040367,4.0349 -4.693978,0.13229 -4.693978,0.13229 v 7.27604 7.27604 l 0.571082,1.05833 0.571079,1.05834 0.751838,0.71301 0.751834,0.71301 0.926042,0.40111 0.926042,0.40111 7.307722,0.0103 z m -4.714896,-3.96229 -0.740743,-0.004 -0.635953,-0.32683 -0.635952,-0.32683 -0.548659,-0.73895 -0.548661,-0.73896 v -1.00165 -1.00165 l 0.477589,-0.72889 0.477586,-0.72889 0.95889,-0.40065 0.958887,-0.40065 0.954606,0.28601 0.954606,0.286 0.601157,0.63991 0.601157,0.6399 0.139663,1.04128 0.139666,1.04128 -0.430416,0.83233 -0.430414,0.83233 -0.776134,0.40135 -0.776131,0.40136 -0.740744,-0.004 z m 67.30301,-0.002 -0.83959,-0.006 -0.84111,-0.4148 -0.84111,-0.41481 -0.44462,-0.93695 -0.44461,-0.93697 0.15322,-0.9442 0.15322,-0.9442 0.80687,-0.80686 0.80687,-0.80687 h 1.13102 1.13103 l 0.73807,0.4836 0.73806,0.4836 0.40066,0.95889 0.40064,0.95889 -0.29523,0.9854 -0.29524,0.98541 -0.80927,0.68096 -0.80927,0.68096 -0.8396,-0.006 z m -33.83322,-20.64086 -13.83762,-0.009 -0.63234,-0.35047 -0.63233,-0.35048 -0.35048,-0.63233 -0.35048,-0.63234 -0.009,-14.10941 -0.009,-14.10942 0.7734,-0.7734 0.7734,-0.77339 h 14.41662 14.41662 l 0.68498,0.81405 0.68498,0.81405 v 14.1523 14.1523 l -0.27242,0.50903 -0.27243,0.50904 -0.77277,0.39961 -0.77277,0.39961 -13.83762,-0.009 z m -33.606722,-46.30306 -0.339228,-0.0104 -0.839925,-0.36535 -0.839928,-0.36535 -0.412996,-0.63031 -0.412996,-0.63031 -0.163086,-0.81544 -0.163089,-0.81544 0.459501,-0.96832 0.4595,-0.96833 0.744934,-0.38522 0.744932,-0.38523 h 0.820028 0.820029 l 0.776131,0.40136 0.776134,0.40135 0.430414,0.83233 0.430416,0.83233 -0.13893,1.03581 -0.138933,1.03581 -0.485442,0.54515 -0.485444,0.54515 -0.851397,0.36036 -0.851398,0.36035 z m 67.336452,-0.005 -0.20694,-0.0149 -0.91687,-0.3158 -0.91688,-0.31579 -0.60447,-0.89903 -0.60447,-0.89902 v -0.76776 -0.76776 l 0.40135,-0.77614 0.40135,-0.77613 0.77614,-0.40135 0.77613,-0.40137 h 0.82003 0.82002 l 0.77614,0.40136 0.77613,0.40135 0.40135,0.77613 0.40136,0.77614 -0.001,0.74074 -0.001,0.74074 -0.53397,0.87582 -0.53397,0.87582 -0.91176,0.38095 -0.91175,0.38095 -0.20694,-0.0149 z"
       style="fill:#000000;stroke-width:0.264583"
       id="path396" />
  </g>
</svg>
