<?xml version="1.0" encoding="UTF-8" standalone="no"?>
<!-- Created with Inkscape (http://www.inkscape.org/) -->

<svg
   width="108mm"
   height="108mm"
   viewBox="0 0 108 108"
   version="1.1"
   id="svg1078"
   inkscape:version="1.2.2 (b0a8486541, 2022-12-01)"
   sodipodi:docname="disk.svg"
   xmlns:inkscape="http://www.inkscape.org/namespaces/inkscape"
   xmlns:sodipodi="http://sodipodi.sourceforge.net/DTD/sodipodi-0.dtd"
   xmlns="http://www.w3.org/2000/svg"
   xmlns:svg="http://www.w3.org/2000/svg">
  <sodipodi:namedview
     id="namedview1080"
     pagecolor="#ffffff"
     bordercolor="#000000"
     borderopacity="0.25"
     inkscape:showpageshadow="2"
     inkscape:pageopacity="0.0"
     inkscape:pagecheckerboard="0"
     inkscape:deskcolor="#d1d1d1"
     inkscape:document-units="mm"
     showgrid="false"
     inkscape:zoom="0.93806818"
     inkscape:cx="-12.259237"
     inkscape:cy="55.966081"
     inkscape:window-width="2560"
     inkscape:window-height="1401"
     inkscape:window-x="2560"
     inkscape:window-y="0"
     inkscape:window-maximized="1"
     inkscape:current-layer="layer1" />
  <defs
     id="defs1075" />
  <g
     inkscape:label="Layer 1"
     inkscape:groupmode="layer"
     id="layer1"
     transform="translate(-108.27533,-134.10506)">
    <path
       d="m 162.56363,241.2326 -35.98334,0.0495 -0.9771,-0.3611 -0.97711,-0.3611 -0.78378,-0.57947 -0.78378,-0.57949 -0.68635,-1.26103 -0.68634,-1.26103 -0.0291,-48.80014 -0.0291,-48.80018 0.54249,-1.06333 0.54248,-1.06336 0.93724,-0.82291 0.93725,-0.82293 0.99657,-0.28901 0.99657,-0.289 36.2706,0.0786 36.27059,0.0786 1.06574,0.73861 1.06571,0.73858 0.7637,1.37808 0.76366,1.37806 0.0714,47.88958 0.0714,47.88959 -0.28006,1.32291 -0.28003,1.32292 -0.6453,0.97756 -0.64532,0.97758 -1.26269,0.74221 -1.2627,0.74223 z m -34.26415,-4.41507 h 1.08299 l 0.64943,-0.64942 0.64944,-0.64945 v -1.08299 -1.08299 l -0.7001,-0.64881 -0.70009,-0.64884 h -0.98362 -0.98362 l -0.69754,0.69755 -0.69753,0.69754 v 0.98362 0.98361 l 0.64882,0.70009 0.64882,0.70009 z m 67.78204,0 h 1.03428 l 0.64945,-0.64942 0.64942,-0.64945 v -1.08238 -1.08239 l -0.64942,-0.64942 -0.64945,-0.64944 h -1.03428 -1.03428 l -0.69752,0.69755 -0.69755,0.69754 v 0.98616 0.98618 l 0.69755,0.69755 0.69752,0.69752 z m -46.84064,-2.20827 8.90226,-0.0407 0.5566,-0.50403 0.5566,-0.50401 v -3.82585 -3.82582 l -1.98542,-2.0402 -1.98542,-2.04023 4.6459,-6.19762 4.6459,-6.19766 2.03587,-0.29882 2.03587,-0.29882 1.85209,-0.46651 1.85208,-0.46654 1.66192,-0.62455 1.66193,-0.62455 1.79376,-0.90334 1.79377,-0.90331 2.41503,-1.61539 2.41503,-1.61539 2.33138,-2.32661 2.33135,-2.32661 1.49838,-2.09916 1.49839,-2.09915 1.20007,-2.3822 1.2001,-2.38218 0.81328,-2.48872 0.81327,-2.48872 0.39085,-2.24134 0.39086,-2.24134 v -3.50258 -3.50255 l -0.39864,-2.28595 -0.39862,-2.28595 -0.82405,-2.57736 -0.82407,-2.57736 -1.05997,-2.11666 -1.05998,-2.11667 -1.53749,-2.24896 -1.5375,-2.24896 -2.72827,-2.67004 -2.72828,-2.67007 -1.98438,-1.32823 -1.98437,-1.32824 -1.98438,-1.00094 -1.98437,-1.00095 -2.63978,-0.89045 -2.63977,-0.89048 -2.25502,-0.4263 -2.25501,-0.4263 -3.43959,0.003 -3.43958,0.003 -1.75902,0.29515 -1.75903,0.29514 -2.34202,0.67667 -2.34201,0.6767 -2.4392,1.06754 -2.4392,1.06754 -2.39714,1.57922 -2.39715,1.57922 -2.49948,2.38953 -2.49949,2.3895 -1.2908,1.76075 -1.29081,1.76073 -1.09763,1.86885 -1.09763,1.86889 -0.89724,2.23216 -0.89724,2.23218 -0.75002,2.91042 -0.75001,2.91041 -0.006,4.7625 -0.006,4.7625 0.49558,2.11667 0.49557,2.11667 0.66017,1.98437 0.66017,1.98438 1.18137,2.36984 1.18136,2.36985 1.36706,1.98834 1.36706,1.98835 2.64583,2.66739 2.64583,2.6674 2.44701,1.60864 2.447,1.60867 -1.99952,1.48606 -1.99952,1.48608 h -0.14495 -0.14496 l -1.97749,-1.91823 -1.9775,-1.91823 -3.79593,-0.0854 -3.79594,-0.0854 -0.54837,0.54838 -0.54838,0.54835 v 9.70912 9.7091 l 4.85883,4.87878 4.85883,4.87879 1.02815,0.2033 1.02815,0.20331 z m -1.6072,-12.36469 -1.20964,-0.0209 -1.06817,-0.37928 -1.06818,-0.37926 -0.95847,-0.79007 -0.95847,-0.79005 -0.68533,-1.37527 -0.68533,-1.37531 v -1.61589 -1.61589 l 0.67461,-1.35376 0.67461,-1.35377 1.11133,-0.90432 1.11132,-0.90432 9.12813,-6.57389 9.12812,-6.57392 3.57188,-2.55331 3.57187,-2.5533 1.11738,-0.73565 1.11739,-0.73565 0.67791,0.17013 0.67791,0.17015 0.25526,0.67138 0.25527,0.67141 -0.26997,0.50443 -0.26997,0.50445 -9.78972,13.17043 -9.78972,13.1704 -1.25129,1.34348 -1.25128,1.3435 -1.30391,0.44244 -1.3039,0.44246 -1.20964,-0.0209 z m 0.0556,-3.70007 0.47152,0.0167 0.89997,-0.37602 0.89997,-0.37603 0.41445,-0.80145 0.41445,-0.80145 v -0.82005 -0.82002 l -0.3743,-0.72382 -0.37431,-0.72382 -0.61788,-0.30475 -0.61789,-0.30475 -0.57589,-0.16057 -0.57589,-0.16058 -0.93967,0.39262 -0.93967,0.39261 -0.54886,0.87583 -0.54885,0.87579 0.1245,1.0182 0.1245,1.0182 0.617,0.66439 0.617,0.6644 0.52917,0.21886 0.52916,0.21889 0.47152,0.0167 z m 15.00661,-32.33637 -2.51354,0.0749 -1.56181,-0.5135 -1.56182,-0.51351 -1.40219,-0.96572 -1.40219,-0.96571 -0.94935,-1.15855 -0.94934,-1.15856 -0.63725,-1.39756 -0.63725,-1.39758 -0.27374,-1.72717 -0.27374,-1.72718 0.25231,-1.55024 0.2523,-1.55022 0.78452,-1.67648 0.78452,-1.67646 1.25002,-1.33638 1.25002,-1.33636 1.87603,-0.92527 1.87604,-0.92528 1.71744,-0.275 1.71744,-0.27501 1.72214,0.29935 1.72215,0.29935 1.60338,0.76456 1.60338,0.76457 1.51633,1.5897 1.51633,1.58972 0.6875,1.50172 0.68751,1.5017 0.26991,1.87999 0.26991,1.87997 -0.45271,2.03057 -0.45271,2.03055 -0.99986,1.54133 -0.99986,1.5413 -1.13671,1.02177 -1.1367,1.02177 -1.75243,0.82203 -1.75244,0.82201 z m -0.58682,-6.54081 0.8684,2.1e-4 0.974,-0.40696 0.97401,-0.40695 0.50086,-0.45294 0.50086,-0.45294 0.50101,-0.98163 0.50101,-0.98166 v -1.2805 -1.28048 l -0.70477,-1.08694 -0.70477,-1.08691 -0.9849,-0.55353 -0.9849,-0.55356 h -1.36617 -1.36618 l -0.7491,0.38737 -0.74909,0.38738 -0.67024,0.79653 -0.67024,0.79653 -0.31679,0.95991 -0.3168,0.9599 0.17335,1.09734 0.17335,1.09733 0.62826,0.95385 0.62825,0.95385 1.1461,0.56729 1.1461,0.56732 z m -33.80901,-35.71854 h 0.75315 l 0.81404,-0.68498 0.81406,-0.68498 v -0.9199 -0.91991 l -0.27243,-0.50906 -0.27243,-0.50903 -0.80522,-0.41637 -0.80521,-0.4164 -0.77122,0.16938 -0.77121,0.16939 -0.53239,0.67683 -0.53239,0.67683 v 0.99912 0.99912 l 0.81405,0.68498 0.81405,0.68498 z m 67.69269,0 h 0.7938 l 0.81404,-0.68498 0.81405,-0.68498 v -0.99912 -0.99912 l -0.5324,-0.67683 -0.53239,-0.67683 -0.77121,-0.16939 -0.77121,-0.16938 -0.80523,0.4164 -0.80521,0.41637 -0.27244,0.50903 -0.27241,0.50904 v 0.8315 0.83151 l 0.7734,0.77338 0.77341,0.7734 z"
       style="fill:#000000;stroke-width:0.264583"
       id="path368" />
  </g>
</svg>
