<svg xmlns="http://www.w3.org/2000/svg" viewBox="0 0 24 24">
  <path fill="#000000" d="M12 23c-4.97 0-8-3.03-8-7.5 0-3.09 1.74-5.81 3.5-7.8 0.42-0.47 0.85-0.91 1.25-1.32 0.6-0.6 1.13-1.12 1.5-1.63C11.1 3.6 11.5 2.4 11.5 1c0-0.36 0.2-0.69 0.52-0.85 0.32-0.16 0.7-0.12 0.98 0.1C13.73 0.83 18 4.5 19.5 8c0.76 1.76 1 3.37 1 4.5 0 4.47-3.03 7.5-8 7.5c0 0 0 0 0 0h-0.5zM10.5 8.2C9.08 9.87 7 12.33 7 15.5 7 18.81 9.19 21 12 21c2.81 0 5-2.19 5-5.5 0-0.88-0.19-2.2-0.82-3.68-0.89-2.08-2.67-4.3-4.18-5.82-0.14 0.64-0.42 1.24-0.82 1.78-0.45 0.63-1.03 1.2-1.68 1.85z"/>
</svg>
