<?xml version="1.0" encoding="UTF-8" standalone="no"?>
<!-- Created with Inkscape (http://www.inkscape.org/) -->

<svg
   width="114mm"
   height="114mm"
   viewBox="0 0 114 114"
   version="1.1"
   id="svg520"
   inkscape:version="1.2.2 (b0a8486541, 2022-12-01)"
   sodipodi:docname="gpu.svg"
   xmlns:inkscape="http://www.inkscape.org/namespaces/inkscape"
   xmlns:sodipodi="http://sodipodi.sourceforge.net/DTD/sodipodi-0.dtd"
   xmlns="http://www.w3.org/2000/svg"
   xmlns:svg="http://www.w3.org/2000/svg">
  <sodipodi:namedview
     id="namedview522"
     pagecolor="#ffffff"
     bordercolor="#000000"
     borderopacity="0.25"
     inkscape:showpageshadow="2"
     inkscape:pageopacity="0.0"
     inkscape:pagecheckerboard="0"
     inkscape:deskcolor="#d1d1d1"
     inkscape:document-units="mm"
     showgrid="false"
     inkscape:zoom="0.93806818"
     inkscape:cx="179.62447"
     inkscape:cy="325.66929"
     inkscape:window-width="2560"
     inkscape:window-height="1401"
     inkscape:window-x="2560"
     inkscape:window-y="0"
     inkscape:window-maximized="1"
     inkscape:current-layer="layer1" />
  <defs
     id="defs517" />
  <g
     inkscape:label="Layer 1"
     inkscape:groupmode="layer"
     id="layer1"
     transform="translate(-57.539552,-62.639584)">
    <path
       d="m 68.042626,167 h -0.718317 l -0.57531,-0.61236 -0.575284,-0.61237 v -8.78034 -8.78034 h -1.684098 -1.684126 l -0.697124,-0.54837 -0.69715,-0.54837 v -0.88764 -0.88763 l 0.69715,-0.54837 0.697124,-0.54837 h 1.684126 1.684098 v -1.19063 -1.19062 h -2.207947 -2.207947 l -0.437886,-0.48386 -0.437885,-0.48385 v -9.52931 -9.5293 l 0.48387,-0.43788 0.483844,-0.43789 h 2.161989 2.161962 v -1.19062 -1.19062 H 64.321633 62.46955 l -0.529167,-0.52917 -0.529166,-0.52917 v -0.73487 -0.73488 l 0.411877,-0.58804 0.411876,-0.58804 h 1.969373 1.969372 v -3.54105 -3.54106 l -1.723071,-0.10971 -1.723099,-0.10972 -0.459713,-0.45959 -0.45974,-0.45959 v -7.55251 -7.55251 l 0.513609,-0.375674 0.513583,-0.375672 h 1.669229 1.669202 v -7.276041 -7.276042 h -3.410266 -3.410267 l -0.611399,-0.495078 -0.6114,-0.495078 v -0.994219 -0.994219 l 0.6114,-0.495078 0.611399,-0.495078 h 4.586154 4.586128 l 0.742368,0.638551 0.742342,0.638548 v 46.21608 46.21607 L 69.385545,166.49421 68.760943,167 Z m 36.081414,-5.82083 h -4.318238 l -0.411877,-0.58804 -0.411877,-0.58804 v -5.49738 -5.49737 h -1.190625 -1.190625 v 2.92781 2.92781 l -0.27387,0.51177 -0.273897,0.51177 h -2.848186 -2.848213 l -0.3175,-0.3175 -0.3175,-0.3175 v -3.12208 -3.12208 H 85.62059 81.519548 v 3.16569 3.16569 l -0.511757,0.27389 -0.511783,0.27389 h -3.668633 -3.66866 l -0.3175,-0.3175 -0.3175,-0.3175 V 117.20542 79.158338 h 45.313205 45.3132 l 3.8993,3.905808 3.8993,3.905806 v 27.113388 27.11338 l -3.8993,3.90581 -3.8993,3.90581 h -2.39779 -2.39778 l -0.3175,0.3175 -0.3175,0.3175 v 1.53458 1.53458 l 0.52917,0.52917 0.52916,0.52917 h 1.93146 1.93146 l 0.3175,0.3175 0.3175,0.3175 v 1.15084 1.15085 l -0.38709,0.74855 -0.38708,0.74855 -0.42831,0.16435 -0.42828,0.16436 h -4.58968 -4.58967 l -0.40005,-0.40004 -0.40002,-0.40004 -0.14931,-1.12132 -0.1493,-1.12131 -0.0649,-1.32292 -0.0649,-1.32292 h -0.92604 -0.92605 l -0.13229,3.72987 -0.13229,3.72987 -0.36311,0.43732 -0.36314,0.43732 h -18.17092 -18.17095 l -0.3175,-0.3175 -0.3175,-0.3175 -0.0313,-3.05594 -0.0313,-3.05594 -0.16973,-0.79375 -0.16973,-0.79375 h -0.79115 -0.79116 l -0.13229,3.73057 -0.13229,3.73057 -0.36312,0.43662 -0.36314,0.43662 z m -1.95585,-1.85208 h 1.06947 l -0.0773,-2.05052 -0.0773,-2.05053 -0.99219,-0.0821 -0.99219,-0.0821 v 2.13264 2.13264 z m 3.96875,0 h 1.06947 l -0.0773,-2.05052 -0.0773,-2.05053 -0.99219,-0.0821 -0.99219,-0.0821 v 2.13264 2.13264 z m 8.17983,0 h 1.06944 v -2.13264 -2.13264 l -0.99218,0.0821 -0.99219,0.0821 -0.0773,2.05053 -0.0773,2.05052 z m 3.96875,0 h 1.06944 v -2.13264 -2.13264 l -0.99218,0.0821 -0.99219,0.0821 -0.0773,2.05053 -0.0773,2.05052 z m 3.97986,0 h 1.05833 v -2.11667 -2.11667 h -1.05833 -1.05833 v 2.11667 2.11667 z m 3.96875,0 h 1.05833 v -2.11667 -2.11667 h -1.05833 -1.05833 v 2.11667 2.11667 z m 3.96875,0 h 1.05833 v -2.11667 -2.11667 h -1.05833 -1.05833 v 2.11667 2.11667 z m 3.96875,0 h 1.05833 v -2.11667 -2.11667 h -1.05833 -1.05833 v 2.11667 2.11667 z m 3.97989,0 h 1.06947 l -0.0773,-2.05052 -0.0773,-2.05053 -0.99219,-0.0821 -0.99218,-0.0821 v 2.13264 2.13264 z m 3.96875,0 h 1.06947 l -0.0773,-2.05052 -0.0773,-2.05053 -0.99219,-0.0821 -0.99218,-0.0821 v 2.13264 2.13264 z m 3.89146,-0.0502 0.99219,-0.0821 -0.0662,-0.19843 -0.0661,-0.19844 v -1.85208 -1.85209 h -0.92603 -0.92604 v 2.13264 2.13264 z m -66.204697,-15.03696 1.065609,0.006 0.616003,-0.43146 0.615977,-0.43145 0.373406,-0.89369 0.373407,-0.89369 -0.170842,-0.72538 -0.170868,-0.72538 -0.664554,-0.71474 -0.664554,-0.71475 -0.729165,-0.16015 -0.729165,-0.16015 -0.935884,0.39103 -0.935858,0.39103 -0.414443,0.80146 -0.41447,0.80145 v 0.69199 0.692 l 0.295566,0.57792 0.29554,0.57791 0.564356,0.45714 0.56433,0.45714 1.065609,0.006 z m 54.176297,0.006 h 1.17528 l 0.68802,-0.54121 0.68802,-0.5412 0.26228,-0.94985 0.26226,-0.94986 -0.34891,-0.82405 -0.34893,-0.82404 -0.49953,-0.43173 -0.49956,-0.43172 -0.59947,-0.18274 -0.59947,-0.18273 -0.91773,0.30288 -0.91776,0.30289 -0.5333,0.67798 -0.53332,0.67799 v 1.17529 1.1753 l 0.77341,0.7734 0.7734,0.7734 z m -27.41364,-0.55305 2.69282,0.0239 2.06968,-0.2862 2.06965,-0.28619 2.77812,-0.8971 2.77813,-0.8971 2.38125,-1.36605 2.38125,-1.36604 1.45521,-1.12067 1.45521,-1.12066 1.98606,-2.08469 1.98607,-2.08468 1.29953,-1.97714 1.2995,-1.97715 0.85619,-1.85931 0.85619,-1.85932 0.56666,-1.71979 0.56663,-1.71979 0.38325,-2.51354 0.38325,-2.51354 -0.004,-2.11667 -0.004,-2.11666 -0.26331,-1.85209 -0.26332,-1.85208 -0.53559,-2.11667 -0.5356,-2.11667 -1.43285,-2.94442 -1.43285,-2.944414 -1.59856,-2.121442 -1.59856,-2.121442 -1.52225,-1.395746 -1.52223,-1.395749 -1.5875,-1.174247 -1.5875,-1.17425 -2.38125,-1.198674 -2.38125,-1.198676 -1.82295,-0.621149 -1.82295,-0.621149 -2.10889,-0.400047 -2.10889,-0.400048 -3.3442,0.0092 -3.3442,0.0092 -1.98438,0.356407 -1.984372,0.356407 -2.059199,0.693738 -2.059199,0.693735 -1.909551,0.960911 -1.909551,0.960908 -1.553686,1.054232 -1.553686,1.054235 -1.482355,1.342422 -1.482328,1.342424 -1.411711,1.60233 -1.411684,1.60233 -1.301538,2.096773 -1.301539,2.096771 -0.815049,1.95786 -0.815049,1.95784 -0.508158,1.98684 -0.508133,1.98684 -0.290856,2.90923 -0.29083,2.90922 0.298371,2.7713 0.29837,2.77129 0.655426,2.30093 0.655426,2.30094 1.278228,2.64583 1.278202,2.64583 1.581309,2.11667 1.581335,2.11667 1.932729,1.8156 1.932728,1.8156 2.212155,1.44196 2.212154,1.44196 1.654043,0.74979 1.654043,0.7498 1.914207,0.58126 1.914238,0.58126 1.92222,0.34844 1.92225,0.34844 2.69282,0.0239 z m 0.65733,-3.18181 -2.55643,-0.0307 -0.46964,-0.12228 -0.46966,-0.12228 -0.7847,-1.55449 -0.7847,-1.5545 -0.71371,-2.32743 -0.71369,-2.32743 -0.0164,-4.36563 -0.0164,-4.36562 0.19285,-0.68527 0.19286,-0.68526 1.58631,0.78625 1.58631,0.78626 1.82671,0.1307 1.82673,0.1307 0.59688,1.32068 0.59687,1.32068 1.29408,1.93483 1.2941,1.93484 1.90476,1.7635 1.90474,1.76351 2.10489,1.24222 2.10489,1.24223 0.0982,0.29448 0.0982,0.29448 -1.40255,0.66271 -1.40258,0.66271 -1.7198,0.57877 -1.71979,0.57878 -1.94151,0.37162 -1.94151,0.37162 -2.55641,-0.0307 z m -13.819584,-3.83151 -0.142584,0.1426 -1.761172,-1.18149 -1.761199,-1.18149 -1.871133,-1.88979 -1.871134,-1.88979 -1.311195,-1.99725 -1.311169,-1.99725 -0.431668,-1.1303 -0.431668,-1.1303 0.715619,-1.22111 0.715618,-1.22111 1.548845,-1.79957 1.54887,-1.79958 1.802104,-1.36788 1.802103,-1.36789 2.38125,-1.16446 2.38125,-1.16446 0.690669,-0.16608 0.690668,-0.16609 0.130016,1.81718 0.130016,1.81717 0.737659,1.64374 0.737685,1.64373 -1.111383,1.58435 -1.111356,1.58436 -0.775731,1.71083 -0.775732,1.71084 -0.577109,2.06071 -0.577136,2.0607 -0.02408,2.95855 -0.02408,2.95855 -0.142584,0.14258 z m 33.535034,-7.0096 -1.3698,-0.0239 -1.85208,-0.3448 -1.85208,-0.34481 -1.32292,-0.45533 -1.32292,-0.45532 -1.60819,-0.7263 -1.60821,-0.72629 -1.56679,-0.99161 -1.56681,-0.99161 -0.71527,-0.67077 -0.71528,-0.67078 1.00849,-0.73054 1.00849,-0.73054 0.9191,-0.94637 0.91911,-0.94637 0.47864,-0.88877 0.47863,-0.88878 3.46842,2e-4 3.46842,2e-4 1.80422,-0.43996 1.8042,-0.43996 1.97329,-0.91172 1.97328,-0.91171 1.20246,-0.81152 1.20245,-0.81152 0.28051,0.17337 0.28051,0.17337 -0.17222,2.06528 -0.17224,2.06527 -0.63868,2.5177 -0.63865,2.5177 -1.10969,2.2394 -1.10966,2.2394 -0.77946,0.94563 -0.77947,0.94562 z m -19.22917,-7.83413 -1.19063,0.13278 -1.09966,-0.2204 -1.09969,-0.22039 -1.03502,-0.52804 -1.03505,-0.52803 -1.00396,-1.11126 -1.00394,-1.11125 -0.561627,-1.22301 -0.561657,-1.22301 0.0045,-1.98437 0.0045,-1.98438 0.631772,-1.30053 0.631742,-1.30052 1.01719,-0.98716 1.01719,-0.98715 1.25312,-0.60395 1.25315,-0.60394 1.98437,-0.0149 1.98438,-0.0149 1.23007,0.56477 1.2301,0.56477 1.1117,1.11168 1.1117,1.11169 0.56468,1.23009 0.56467,1.2301 0.004,2.11666 0.004,2.11667 -0.6032,1.2243 -0.60319,1.2243 -0.96668,0.99537 -0.96669,0.99537 -1.34053,0.59796 -1.34054,0.59796 -1.19063,0.13277 z m 9.57895,-7.22323 h -0.24742 l -0.12824,-1.78604 -0.12824,-1.78594 -0.70107,-1.48074 -0.70107,-1.48074 v -0.19138 -0.19138 l 0.81611,-1.18615 0.81608,-1.18614 1.01701,-2.03653 1.017,-2.03652 0.5715,-2.116671 0.5715,-2.116667 0.0566,-2.835979 0.0565,-2.835981 0.18071,-0.180692 0.18069,-0.180689 1.466,0.973367 1.466,0.973371 1.94903,1.851406 1.94905,1.851406 1.31657,1.911688 1.31657,1.911681 0.56404,1.11394 0.56404,1.11394 v 0.3664 0.36639 l -1.09337,1.69467 -1.09336,1.69467 -1.82809,1.79849 -1.82811,1.79849 -1.96263,1.28122 -1.96262,1.28122 -1.97668,0.82289 -1.97667,0.8229 z m -36.71401,-1.05844 h -0.381608 l 0.0053,-0.59531 0.0053,-0.59531 0.264398,-1.85209 0.264372,-1.85208 0.392351,-1.54467 0.392324,-1.54467 0.785442,-1.96158 0.785468,-1.96159 0.921465,-1.44047 0.921464,-1.44048 0.679159,-0.445013 0.679185,-0.445014 2.351485,0.301567 2.351484,0.301567 2.074942,0.676915 2.074942,0.676918 1.611365,0.76858 1.611392,0.76857 2.02663,1.48005 2.02665,1.48005 -0.0101,0.18026 -0.01,0.18026 -1.41065,0.97896 -1.410677,0.97897 -0.991156,1.49326 -0.991182,1.49325 -2.062771,-0.18259 -2.062771,-0.1826 -2.470679,0.31916 -2.470653,0.31916 -2.092775,0.76159 -2.092774,0.76159 -1.692805,1.0614 -1.69283,1.06139 h -0.381582 z m 32.33073,-8.01789 -0.0749,0.0749 -0.50985,-0.39098 -0.50985,-0.39098 -1.68151,-0.53233 -1.6815,-0.53233 h -1.24984 -1.24981 l -0.64053,-1.38176 -0.64056,-1.38176 -1.21904,-1.859383 -1.21904,-1.859389 -1.95596,-1.862198 -1.95596,-1.862198 -1.322917,-0.8182 -1.322916,-0.818203 -0.79375,-0.365874 -0.79375,-0.365874 v -0.390154 -0.390158 l 2.248958,-0.959619 2.248958,-0.959623 1.793267,-0.446781 1.79327,-0.446778 2.44006,-0.272526 2.44007,-0.272523 1.32519,0.165475 1.32522,0.165476 0.29374,0.187381 0.29374,0.187378 0.66532,1.322916 0.66532,1.322917 0.68025,2.158338 0.68027,2.158341 0.26498,2.590083 0.26498,2.590081 -0.26347,2.780685 -0.26348,2.78069 z m 41.8846,33.41428 10.73119,-0.004 0.59822,-0.16029 0.5982,-0.1603 0.16835,-0.67079 0.16835,-0.67079 -0.26622,-0.42207 -0.26622,-0.42207 h -11.61286 -11.61282 l -0.087,0.91436 -0.087,0.91436 0.46828,0.34241 0.46826,0.34241 10.73121,-0.004 z m 0.19511,-5.29211 11.15975,0.004 0.41577,-0.41577 0.41577,-0.41578 v -0.61016 -0.61016 l -0.36124,-0.29982 -0.36126,-0.29982 -11.47884,0.069 -11.47887,0.069 -0.0845,1.0314 -0.0845,1.03141 0.34903,0.22131 0.34904,0.22132 11.15976,0.004 z m 0.003,-5.28761 h 11.47096 l 0.30136,-0.66146 0.30139,-0.66146 -0.30139,-0.66146 -0.30136,-0.66146 h -11.2292 -11.22881 l -0.41852,0.1606 -0.41851,0.1606 v 0.98593 0.98593 l 0.17639,0.17639 0.17638,0.17639 z m -0.0586,-5.29167 h 11.41235 l 0.3175,-0.3175 0.3175,-0.3175 v -0.58964 -0.58965 l -0.41577,-0.41577 -0.41579,-0.41577 H 154.97558 143.8026 l -0.3175,0.3175 -0.3175,0.3175 v 0.82902 0.82903 l 0.17639,0.17639 0.17638,0.17639 z m -0.0526,-5.29166 h 11.46498 l 0.3175,-0.3175 0.3175,-0.3175 v -0.58965 -0.58964 l -0.41577,-0.41577 -0.41579,-0.41578 H 155.10552 144.0625 l -0.41048,0.33073 -0.41047,0.33073 -0.13452,0.39688 -0.13448,0.39687 0.22129,0.59531 0.22127,0.59532 z m 0.0749,-5.02709 h 11.19349 l 0.41579,-0.41577 0.41577,-0.41578 v -0.61016 -0.61016 l -0.36126,-0.29982 -0.36127,-0.29982 -11.47884,0.069 -11.47897,0.069 -0.0842,0.87718 -0.0842,0.87718 0.31501,0.37959 0.31504,0.3796 h 11.19351 z m 0.19061,-5.29572 11.31662,0.004 0.30136,-0.66145 0.30139,-0.66146 -0.30263,-0.66424 -0.30266,-0.66425 -11.57994,0.0689 -11.58004,0.0689 -0.0845,1.0314 -0.0845,1.03141 0.34903,0.22131 0.34904,0.22132 11.31663,0.004 z m -0.21305,-5.28761 h 11.41236 l 0.3175,-0.3175 0.3175,-0.3175 v -0.58964 -0.58965 l -0.41577,-0.415772 -0.41577,-0.415774 H 155.07647 144.0045 l -0.41852,0.160599 -0.41852,0.1606 v 0.985927 0.98593 l 0.1764,0.17639 0.1764,0.17639 z m -0.0506,-5.29167 h 11.463 l 0.3175,-0.3175 0.3175,-0.3175 V 95.694785 95.13916 l -0.3175,-0.3175 -0.3175,-0.3175 h -11.44752 -11.44715 l -0.27392,0.511845 -0.27395,0.511842 0.25808,0.678783 0.25807,0.67878 z m -0.23886,-5.030694 10.88165,-0.0036 0.59822,-0.160295 0.5982,-0.160293 0.16835,-0.670795 0.16835,-0.670793 -0.26622,-0.422071 -0.26622,-0.422069 h -11.61323 -11.61282 l -0.0842,0.877178 -0.0842,0.877181 0.31501,0.37959 0.31504,0.379593 10.88168,-0.0036 z M 79.869924,89.477077 h 1.0491 l 0.690774,-0.543361 0.690774,-0.543362 0.30144,-1.006073 0.301413,-1.006075 -0.468947,-0.988219 -0.468921,-0.988219 -0.855028,-0.407731 -0.855027,-0.407728 -0.939509,0.176255 -0.939536,0.176258 -0.677412,0.805053 -0.677413,0.805053 v 1.064492 1.064491 l 0.899583,0.899583 0.899584,0.899583 z m 54.128586,-0.0059 1.01749,0.0059 0.75916,-0.54057 0.75915,-0.54057 0.24347,-0.881761 0.24347,-0.881761 -0.12806,-0.669912 -0.12806,-0.669912 -0.78497,-0.752028 -0.78494,-0.752027 h -1.19496 -1.19494 l -0.77205,0.864071 -0.77206,0.864068 v 0.939263 0.93926 l 0.29557,0.577919 0.29554,0.577918 0.56436,0.457137 0.56433,0.457139 1.0175,0.0059 z"
       style="fill:#000000;stroke-width:0.264583"
       id="path473" />
  </g>
</svg>
