<?xml version="1.0" encoding="UTF-8" standalone="no"?>
<!-- Created with Inkscape (http://www.inkscape.org/) -->

<svg
   width="110mm"
   height="110mm"
   viewBox="0 0 110 110"
   version="1.1"
   id="svg692"
   inkscape:version="1.2.2 (b0a8486541, 2022-12-01)"
   sodipodi:docname="ram.svg"
   xmlns:inkscape="http://www.inkscape.org/namespaces/inkscape"
   xmlns:sodipodi="http://sodipodi.sourceforge.net/DTD/sodipodi-0.dtd"
   xmlns="http://www.w3.org/2000/svg"
   xmlns:svg="http://www.w3.org/2000/svg">
  <sodipodi:namedview
     id="namedview694"
     pagecolor="#ffffff"
     bordercolor="#000000"
     borderopacity="0.25"
     inkscape:showpageshadow="2"
     inkscape:pageopacity="0.0"
     inkscape:pagecheckerboard="0"
     inkscape:deskcolor="#d1d1d1"
     inkscape:document-units="mm"
     showgrid="false"
     inkscape:zoom="0.93806818"
     inkscape:cx="79.418534"
     inkscape:cy="48.503937"
     inkscape:window-width="2560"
     inkscape:window-height="1401"
     inkscape:window-x="2560"
     inkscape:window-y="0"
     inkscape:window-maximized="1"
     inkscape:current-layer="layer1" />
  <defs
     id="defs689" />
  <g
     inkscape:label="Layer 1"
     inkscape:groupmode="layer"
     id="layer1"
     transform="translate(-83.961034,-135.82218)">
    <path
       style="fill:#000000;stroke-width:0.264583"
       d="m 114.79467,214.61554 -27.82877,-0.0168 -0.579888,-0.23359 -0.57989,-0.23357 -0.478443,-0.7301 -0.478446,-0.73009 v -5.83257 -5.83258 l 1.322917,-0.15584 1.322916,-0.15584 0.472808,-0.20695 0.472805,-0.20695 0.387091,-0.74855 0.387088,-0.74855 v -0.66215 -0.66214 l -0.287129,-0.63018 -0.287128,-0.63018 -0.745882,-0.44061 -0.745881,-0.4406 H 85.93289 84.716941 v -3.57187 -3.57188 h 0.93454 0.93454 l 0.91485,-0.38225 0.914847,-0.38225 0.434539,-0.91123 0.434536,-0.91123 -0.172435,-0.91915 -0.172434,-0.91916 -0.55068,-0.49836 -0.55068,-0.49836 -1.494665,-0.13327 -1.494666,-0.13328 v -6.93968 -6.93968 l 0.733602,-0.73324 0.733605,-0.73323 52.5383,-0.0681 52.53831,-0.0681 0.90604,0.90604 0.90604,0.90604 -0.0707,6.83497 -0.0707,6.83497 -1.37406,0.13822 -1.37406,0.13822 -0.66274,0.62261 -0.66273,0.62261 -0.16432,0.74812 -0.16431,0.74812 0.41509,0.87475 0.4151,0.87475 0.54944,0.34314 0.54945,0.34314 1.30271,0.15428 1.30272,0.15429 v 3.53502 3.53502 h -1.07147 -1.07148 l -0.80145,0.41445 -0.80145,0.41445 -0.38907,0.93115 -0.38906,0.93116 0.29677,0.89922 0.29677,0.89921 0.67798,0.53331 0.67799,0.5333 h 1.28723 1.28724 v 5.94895 5.94895 l -0.77199,0.86407 -0.77198,0.86407 -22.64364,0.0705 -22.64364,0.0705 v -4.19668 -4.19669 l -0.48385,-0.43788 -0.48386,-0.43788 h -0.79805 -0.79806 l -0.50403,0.55612 -0.50402,0.55612 -0.0848,4.07409 -0.0848,4.07408 -27.82877,-0.0168 z m -19.097521,-1.83531 h 0.926042 v -2.77812 -2.77813 h -0.926042 -0.926041 v 2.77813 2.77812 z m 3.96875,0 h 0.926041 v -2.77812 -2.77813 h -0.926041 -0.926041 v 2.77813 2.77812 z m 3.968751,0 h 0.92604 v -2.77812 -2.77813 h -0.92604 -0.92604 v 2.77813 2.77812 z m 3.96875,0 h 0.92604 v -2.77812 -2.77813 h -0.92604 -0.92604 v 2.77813 2.77812 z m 3.96875,0 h 0.92604 v -2.77812 -2.77813 h -0.92604 -0.92604 v 2.77813 2.77812 z m 4.16719,-0.0494 0.8599,-0.0829 v -2.64583 -2.64584 h -0.8599 -0.8599 v 0.19844 0.19844 2.5303 2.53031 z m 4.0349,0.0494 h 0.92604 v -2.77812 -2.77813 h -0.92604 -0.92605 v 2.77813 2.77812 z m 3.96875,0 h 0.92604 v -2.77812 -2.77813 h -0.92604 -0.92605 v 2.77813 2.77812 z m 3.96875,0 h 0.92604 v -2.77812 -2.77813 h -0.92604 -0.92605 v 2.77813 2.77812 z m 3.96875,0 h 0.92604 v -2.77812 -2.77813 h -0.92604 -0.92605 v 2.77813 2.77812 z m 3.96875,0 h 0.92604 v -2.77812 -2.77813 h -0.92604 -0.92605 v 2.77813 2.77812 z m 4.09273,0 h 0.80206 v -2.79489 -2.79489 l -0.8599,0.0829 -0.85989,0.0829 -0.0771,2.36031 -0.0771,2.36031 0.13495,0.35167 0.13495,0.35167 z m 10.72393,0 h 0.92604 v -2.77812 -2.77813 h -0.92604 -0.92604 v 2.77813 2.77812 z m 3.96875,0 h 0.92604 v -2.77812 -2.77813 h -0.92604 -0.92604 v 2.77813 2.77812 z m 3.96875,0 h 0.92604 v -2.77812 -2.77813 h -0.92604 -0.92604 v 2.77813 2.77812 z m 3.96875,0 h 0.92604 v -2.77812 -2.77813 h -0.92604 -0.92604 v 2.77813 2.77812 z m 3.96875,0 h 0.92604 v -2.77812 -2.77813 h -0.92604 -0.92604 v 2.77813 2.77812 z m 4.06462,0 h 0.75732 l 0.17422,-1.48239 0.17423,-1.4824 -0.17189,-1.29573 -0.17188,-1.29573 h -0.91868 -0.91868 l 0.13525,2.71198 0.13525,2.71198 0.0238,0.0661 0.0238,0.0661 h 0.75732 z m 4.14672,0 h 0.9353 l -0.0754,-2.71198 -0.0754,-2.71198 -0.85989,-0.0829 -0.8599,-0.0829 v 2.79489 2.79489 z m 3.95949,0 h 0.92605 v -2.77812 -2.77813 h -0.92605 -0.92604 v 2.77813 2.77812 z m 3.96875,0 h 0.92605 v -2.77812 -2.77813 h -0.92605 -0.92604 v 2.77813 2.77812 z m -92.790576,-1.34381 0.60734,0.0209 0.649431,-0.64944 0.649433,-0.64943 v -0.68551 -0.68551 l -0.649433,-0.64943 -0.649431,-0.64943 h -0.396451 -0.396452 l -0.656026,0.2989 -0.656024,0.29891 -0.303313,0.73226 -0.30331,0.73225 0.412154,0.79702 0.412152,0.79702 0.336296,0.1353 0.336296,0.13531 0.607338,0.0209 z m 98.689586,0 0.60734,0.0209 0.64943,-0.64944 0.64943,-0.64943 v -0.68551 -0.68551 l -0.64943,-0.64943 -0.64943,-0.64943 h -0.39645 -0.39645 l -0.66074,0.30105 -0.66074,0.30105 -0.27227,0.78103 -0.27227,0.78103 0.38583,0.74609 0.38582,0.74611 0.3363,0.1353 0.33629,0.13531 0.60734,0.0209 z M 102.8274,199.81565 h 4.8435 l 0.26851,-0.33073 0.26851,-0.33073 0.097,-0.52917 0.097,-0.52916 1.25439,-0.0806 1.25439,-0.0806 v -0.91154 -0.91155 h -1.32291 -1.32292 v -0.92604 -0.92604 h 1.32292 1.32291 v -0.92604 -0.92605 h -1.33889 -1.33888 l 0.0821,-0.99218 0.0821,-0.99219 0.39688,-0.0258 0.39687,-0.0258 0.8599,-0.0403 0.85989,-0.0403 v -0.92604 -0.92605 h -1.32291 -1.32292 v -0.92604 -0.92604 h 1.32292 1.32291 v -0.92604 -0.92604 h -1.32291 -1.32292 v -0.91155 -0.91154 l 1.25677,-0.0806 1.25677,-0.0806 0.0818,-0.84476 0.0818,-0.84476 -1.2724,-0.0813 -1.27241,-0.0813 -0.0821,-0.99219 -0.0821,-0.99219 h 1.33888 1.33889 v -0.92604 -0.92604 h -1.32291 -1.32292 v -0.62906 -0.62906 l -0.36501,-0.30294 -0.36502,-0.30293 -4.9928,0.0721 -4.992797,0.0721 -0.253154,0.85989 -0.25315,0.8599 h -1.268204 -1.2682 v 0.92604 0.92604 h 1.322916 1.322917 v 1.05834 1.05833 h -1.322917 -1.322916 v 0.79375 0.79375 l 0.859895,0.0472 0.859896,0.0472 0.463021,-0.002 0.463021,-0.002 v 1.01319 1.0132 h -1.322917 -1.322916 v 0.92604 0.92604 h 1.322916 1.322917 v 0.92604 0.92604 h -1.33889 -1.338887 l 0.08212,0.99219 0.08212,0.99219 1.256771,0.0806 1.256771,0.0806 v 0.91155 0.91154 H 95.829496 94.50658 v 0.92605 0.92604 h 1.322916 1.322917 v 0.92604 0.92604 H 95.829496 94.50658 v 0.92604 0.92604 h 1.322916 1.322917 v 0.51027 0.51027 l 0.415774,0.41577 0.415774,0.41578 h 4.843489 z m 20.13045,0 h 4.82138 l 0.26851,-0.33073 0.26851,-0.33073 0.097,-0.52917 0.097,-0.52916 1.25438,-0.0806 1.2544,-0.0806 v -0.91154 -0.91155 h -1.32292 -1.32292 v -0.91221 -0.91222 l 1.38907,-0.08 1.38906,-0.08 v -0.79375 -0.79375 l -1.32292,-0.1323 -1.32291,-0.13229 -0.0829,-0.85989 -0.0829,-0.8599 h 1.33968 1.33968 v -1.05833 -1.05834 h -1.32292 -1.32292 v -0.92604 -0.92604 h 1.27882 1.27882 l 0.13079,-0.13079 0.13078,-0.13078 -0.11672,-0.79526 -0.11671,-0.79525 h -1.29289 -1.29289 v -0.92604 -0.92605 h 1.32292 1.32292 v -0.91154 -0.91155 l -1.25677,-0.0806 -1.25677,-0.0806 -0.0821,-0.99219 -0.0821,-0.99219 h 1.33889 1.33889 v -0.92604 -0.92604 h -1.32292 -1.32292 v -0.62906 -0.62906 l -0.36501,-0.30294 -0.36502,-0.30293 -4.99279,0.0721 -4.9928,0.0721 -0.25315,0.85989 -0.25316,0.8599 h -1.2682 -1.2682 v 0.92604 0.92604 h 1.32292 1.32291 v 0.91155 0.91154 l -1.25677,0.0806 -1.25677,0.0806 v 0.92604 0.92604 h 1.25658 1.25657 l 2e-4,0.99219 1.9e-4,0.99219 h -1.32291 -1.32292 v 0.92604 0.92604 h 1.32292 1.32291 v 0.92604 0.92604 h -1.33889 -1.33888 l 0.0821,0.99219 0.0821,0.99219 1.25677,0.0806 1.25677,0.0806 v 0.91155 0.91154 h -1.32291 -1.32292 v 0.92605 0.92604 h 1.32292 1.32291 v 0.92604 0.92604 h -1.32291 -1.32292 v 0.92604 0.92604 h 1.32292 1.32291 v 0.44219 0.44219 l 0.43789,0.48385 0.43788,0.48386 z m 32.52164,0 h 4.84349 l 0.26851,-0.33073 0.26851,-0.33073 0.097,-0.52917 0.097,-0.52916 1.25439,-0.0806 1.2544,-0.0806 v -0.91154 -0.91155 h -1.32292 -1.32292 v -0.92604 -0.92604 h 1.32292 1.32292 v -0.92604 -0.92605 h -1.32292 -1.32292 v -0.92604 -0.92604 l 0.72761,-0.004 0.7276,-0.004 0.59531,-0.15954 0.59532,-0.15954 v -0.89518 -0.89518 h -1.32292 -1.32292 v -0.92605 -0.92604 h 1.32292 1.32292 v -0.92604 -0.92604 h -1.32292 -1.32292 v -0.91693 -0.91693 l 1.32292,-0.17549 1.32292,-0.17549 v -0.75055 -0.75055 l -1.32292,-0.17549 -1.32292,-0.17549 v -0.89196 -0.89195 h 1.32292 1.32292 v -0.92605 -0.92604 h -1.32292 -1.32292 v -0.62906 -0.62906 l -0.36501,-0.30293 -0.36502,-0.30294 -4.99279,0.0721 -4.9928,0.0721 -0.25315,0.85989 -0.25316,0.8599 h -1.2682 -1.2682 v 0.92604 0.92604 h 1.32292 1.32291 v 0.92605 0.92604 l -0.92604,0.0331 -0.92604,0.0331 -0.33073,0.0331 -0.33073,0.0331 v 0.92604 0.92604 l 1.25677,0.0806 1.25677,0.0806 v 0.91154 0.91155 h -1.32291 -1.32292 v 0.92604 0.92604 h 1.32292 1.32291 v 0.92604 0.92604 h -1.32291 -1.32292 v 0.89196 0.89195 l 1.32292,0.17549 1.32291,0.1755 v 0.91692 0.91693 h -1.32291 -1.32292 v 0.92605 0.92604 h 1.32292 1.32291 v 0.92604 0.92604 h -1.32291 -1.32292 v 0.92604 0.92604 h 1.32292 1.32291 v 0.51027 0.51027 l 0.41578,0.41577 0.41577,0.41578 z m 20.08781,0 h 4.82298 l 0.3175,-0.3175 0.3175,-0.3175 v -0.60854 -0.60855 h 1.32291 1.32292 v -0.92604 -0.92604 h -1.32292 -1.32291 v -0.92604 -0.92604 h 1.32291 1.32292 v -0.92604 -0.92605 h -1.32292 -1.32291 v -0.91154 -0.91155 l 1.25677,-0.0806 1.25677,-0.0806 0.0821,-0.99219 0.0821,-0.99219 h -1.33888 -1.33889 v -0.92604 -0.92604 h 1.32291 1.32292 v -0.92604 -0.92604 h -1.32292 -1.32291 v -0.91693 -0.91693 l 1.32291,-0.17549 1.32292,-0.17549 v -0.75967 -0.75966 l -0.92604,-0.0331 -0.92604,-0.0331 -0.33073,-0.0331 -0.33073,-0.0331 -0.0821,-0.99219 -0.0821,-0.99219 h 1.33889 1.33889 v -0.92604 -0.92604 h -1.32292 -1.32291 v -0.62906 -0.62906 l -0.36502,-0.30294 -0.36501,-0.30293 -4.9928,0.0721 -4.9928,0.0721 -0.25315,0.85989 -0.25315,0.8599 h -1.26821 -1.2682 v 0.92604 0.92604 h 1.32292 1.32292 v 0.89774 0.89773 l -0.41852,0.1606 -0.41851,0.1606 h -0.90441 -0.9044 v 0.79375 0.79375 h 1.32292 1.32292 v 1.05833 1.05834 h -1.32292 -1.32292 v 0.92604 0.92604 h 1.32292 1.32292 v 0.92604 0.92604 h -1.32292 -1.32292 v 0.92605 0.92604 h 1.32292 1.32292 v 1.05833 1.05833 h -1.32292 -1.32292 v 0.92605 0.92604 h 1.32292 1.32292 v 0.92604 0.92604 h -1.32292 -1.32292 v 0.92604 0.92604 h 1.32292 1.32292 v 0.51027 0.51027 l 0.41577,0.41577 0.41577,0.41578 z"
       id="path309"
       sodipodi:nodetypes="ccccccccccccccccccccccccccccccccccccccccccccccccccccccccccccccccccccccccccccccccccccccccccccccccccccccccccccccccccccccccccccccccccccccccccccccccccccccccccccccccccccccccccccccccccccccccccccccccccccccccccccccccccccccccccccccccccccccccccccccccccccccccccccccccccccccccccccccccccccccccccccccccccccccccccccccccccccccccccccccccccccccccccccccccccccccccccccccccccccccccccccccccccccccccccccccccccccccccccccccccccccccccccccccccccccccccccccccccccccccccccccccccccccccccccccccccccccccccccccccccccccccccccccccccccccccccccccccccccccccccccccccccccccccccccccccccccccccccccccccccccccccccccccccccccccccccccccccccccccccccccccccccccccccccccccccccccccccccccccccccccccccccccccccccccccccccccccccccccccccccccccccccccccccccccccccccccccccccccccccccccccccccccccccccccccccccccccccccccccccccccccccccccccccccccccccccccc" />
  </g>
</svg>
