<?xml version="1.0" encoding="UTF-8" standalone="no"?>
<!-- Created with Inkscape (http://www.inkscape.org/) -->

<svg
   width="72mm"
   height="72mm"
   viewBox="0 0 72 72"
   version="1.1"
   id="svg638"
   inkscape:version="1.2.2 (b0a8486541, 2022-12-01)"
   sodipodi:docname="working.svg"
   xmlns:inkscape="http://www.inkscape.org/namespaces/inkscape"
   xmlns:sodipodi="http://sodipodi.sourceforge.net/DTD/sodipodi-0.dtd"
   xmlns="http://www.w3.org/2000/svg"
   xmlns:svg="http://www.w3.org/2000/svg">
  <sodipodi:namedview
     id="namedview640"
     pagecolor="#ffffff"
     bordercolor="#000000"
     borderopacity="0.25"
     inkscape:showpageshadow="2"
     inkscape:pageopacity="0.0"
     inkscape:pagecheckerboard="0"
     inkscape:deskcolor="#d1d1d1"
     inkscape:document-units="mm"
     showgrid="false"
     inkscape:zoom="2.6532575"
     inkscape:cx="93.281561"
     inkscape:cy="143.40862"
     inkscape:window-width="2560"
     inkscape:window-height="1401"
     inkscape:window-x="2560"
     inkscape:window-y="0"
     inkscape:window-maximized="1"
     inkscape:current-layer="layer1" />
  <defs
     id="defs635" />
  <g
     inkscape:label="Layer 1"
     inkscape:groupmode="layer"
     id="layer1"
     transform="translate(-90.637519,-83.67508)">
    <path
       d="m 126.34036,154.65054 -1.85209,0.093 -1.24728,-0.15451 -1.24728,-0.15452 -0.69608,-0.65035 -0.69609,-0.65035 -0.33888,-0.66146 -0.33888,-0.66147 -0.33822,-2.38124 -0.33821,-2.38125 -0.22178,-0.44183 -0.22178,-0.44184 -0.99421,-0.31254 -0.99422,-0.31254 -1.76806,-0.79791 -1.76806,-0.79791 -2.20069,1.5814 -2.20069,1.5814 -1.00943,0.32782 -1.00944,0.32782 -0.93504,-0.17541 -0.93505,-0.17542 -2.88648,-2.80766 -2.88647,-2.80767 -0.283819,-1.05401 -0.283815,-1.05401 0.154524,-0.82368 0.154525,-0.82369 0.859205,-1.22201 0.8592,-1.22201 0.88845,-1.24249 0.88845,-1.2425 -0.80616,-1.76291 -0.80616,-1.76291 -0.34091,-1.1109 -0.3409,-1.1109 -0.667426,-0.19444 -0.667422,-0.19444 -0.433102,-0.0462 -0.433102,-0.0462 -1.683564,-0.19031 -1.683565,-0.19031 -0.949873,-0.53365 -0.949873,-0.53365 -0.493239,-0.83495 -0.493236,-0.83496 -0.112159,-3.14544 -0.11216,-3.14544 0.314481,-1.40525 0.314479,-1.40524 0.892677,-0.78378 0.892675,-0.78378 0.480404,-0.148 0.480407,-0.148 2.453447,-0.39264 2.453447,-0.39264 0.239224,-0.14785 0.23923,-0.14785 0.31906,-0.9885 0.31905,-0.98851 0.75387,-1.67984 0.75387,-1.67985 -0.26264,-0.49076 -0.26265,-0.49075 -1.44326,-2.01161 -1.443265,-2.01161 -0.163005,-0.86888 -0.163004,-0.868891 0.297891,-1.106289 0.297895,-1.106291 2.636488,-2.573862 2.63649,-2.573861 0.72518,-0.318797 0.72518,-0.318793 0.79375,-0.0061 0.79375,-0.0061 1.05834,0.490122 1.05833,0.490122 1.81378,1.367925 1.81379,1.367925 2.28725,-0.954215 2.28726,-0.954214 0.57057,-0.231238 0.57057,-0.231238 0.14514,-0.744551 0.14513,-0.744551 0.31591,-2.069898 0.31591,-2.069899 0.55588,-0.81619 0.55589,-0.816189 0.7374,-0.546322 0.7374,-0.54632 4.15739,-0.0072 4.15739,-0.0072 0.82404,0.498883 0.82403,0.498882 0.4396,0.744173 0.43959,0.744172 0.51557,2.806205 0.51557,2.806206 0.15465,0.250219 0.15464,0.250219 h 0.40842 0.40842 l 2.24817,1.053528 2.24817,1.053529 0.49059,-0.262554 0.49058,-0.262552 2.01161,-1.443265 2.01161,-1.443262 0.93654,-0.175697 0.93654,-0.175694 0.96667,0.293997 0.96666,0.293997 2.6019,2.559558 2.6019,2.559561 0.24237,0.637487 0.24237,0.637485 -0.004,1.239546 -0.004,1.239542 -0.59096,0.98959 -0.59096,0.98958 -1.14562,1.62922 -1.14562,1.62922 0.78813,1.74682 0.78812,1.74683 0.31065,0.9885 0.31065,0.9885 0.2437,0.15062 0.24371,0.15061 2.91774,0.50061 2.91775,0.5006 0.75305,0.53623 0.75306,0.53622 0.36567,0.86676 0.36567,0.86677 -0.0121,3.175 -0.0121,3.175 -0.12532,0.94551 -0.12531,0.94551 -0.46158,0.70445 -0.46157,0.70444 -0.64798,0.42458 -0.64797,0.42457 -2.95614,0.49697 -2.95614,0.49699 -0.0607,0.0743 -0.0607,0.0743 -0.46913,1.45521 -0.46914,1.45521 -0.64718,1.29202 -0.6472,1.29202 1.76211,2.57195 1.7621,2.57193 0.14101,1.05126 0.141,1.05125 -0.5322,1.03792 -0.53219,1.03791 -2.2762,2.24896 -2.27619,2.24895 -0.85421,0.46303 -0.85421,0.46302 h -0.74023 -0.74023 l -0.8514,-0.36169 -0.85139,-0.36169 -2.08127,-1.50093 -2.08128,-1.50092 -2.15206,0.91938 -2.15206,0.91937 -0.71523,0.17507 -0.71523,0.17506 -0.16619,1.23119 -0.16619,1.2312 -0.35357,1.79913 -0.35357,1.79913 -0.42234,0.64457 -0.42234,0.64458 -0.68634,0.44971 -0.68633,0.4497 -1.49279,0.0674 -1.4928,0.0674 -1.85208,0.093 z m 1.41358,-13.81986 h 2.03664 l 1.97905,-0.54796 1.97906,-0.54796 2.11667,-0.99932 2.11667,-0.99933 1.6295,-1.23512 1.62951,-1.23511 1.6317,-1.91395 1.63171,-1.91395 1.1575,-2.38125 1.1575,-2.38125 0.54223,-1.97906 0.54222,-1.97906 v -2.03663 -2.03664 l -0.69714,-0.54837 -0.69714,-0.54837 h -0.72238 -0.72239 l -0.65814,0.5177 -0.65815,0.51769 -0.17478,2.06199 -0.17479,2.062 -0.35391,1.32291 -0.35391,1.32292 -0.80452,1.58926 -0.80453,1.58926 -1.20052,1.58574 -1.20052,1.58574 -1.40786,1.08774 -1.40786,1.08776 -1.5875,0.80072 -1.5875,0.80073 -1.4047,0.41701 -1.40471,0.41701 -2.03488,0.17516 -2.03488,0.17516 -0.59531,0.54204 -0.59531,0.54203 v 0.84425 0.84422 l 0.54837,0.69714 0.54837,0.69714 z m -0.0907,-11.03356 1.5875,-0.14136 1.45521,-0.5399 1.45521,-0.53991 1.74399,-1.74399 1.74399,-1.74398 0.57818,-1.55018 0.57819,-1.55017 0.15642,-1.4966 0.15643,-1.4966 -0.42702,-1.6668 -0.42701,-1.66679 -0.68316,-1.16572 -0.68315,-1.16572 -1.43546,-1.31193 -1.43546,-1.31193 -1.52047,-0.59459 -1.52047,-0.59459 h -2.24896 -2.24896 l -1.5875,0.61891 -1.58749,0.6189 -1.66033,1.65898 -1.66033,1.65898 -0.64619,1.46116 -0.64619,1.46116 -0.17135,1.67244 -0.17135,1.67243 0.43656,1.70407 0.43657,1.70407 0.79912,1.24532 0.79911,1.24532 1.18406,1.09142 1.18406,1.09143 1.24875,0.54196 1.24875,0.54196 1.19063,0.2168 1.19062,0.2168 z m -19.93894,-8.01644 h 0.85487 l 0.61237,-0.57528 0.61236,-0.57529 v -1.12123 -1.12123 l 0.39056,-2.04128 0.39057,-2.04128 0.93189,-1.8846 0.93189,-1.8846 1.17603,-1.49724 1.17603,-1.49724 1.69,-1.20595 1.68999,-1.20596 1.56621,-0.77122 1.56621,-0.77122 1.90431,-0.42819 1.90431,-0.42818 h 1.21657 1.21657 l 0.64943,-0.64944 0.64943,-0.64943 v -0.7701 -0.770093 l -0.54837,-0.69714 -0.54837,-0.69714 h -2.03664 -2.03663 l -1.97906,0.542224 -1.97905,0.542223 -2.38125,1.159376 -2.38125,1.15937 -1.7198,1.44267 -1.71979,1.44266 -1.39383,1.72408 -1.39383,1.72408 -1.0621,2.26647 -1.06211,2.26648 -0.52062,2.03563 -0.52063,2.03564 v 1.82179 1.82178 l 0.64943,0.64943 0.64943,0.64943 z"
       style="fill:#000000;stroke-width:0.264583"
       id="path380" />
  </g>
</svg>
